%TF.GenerationSoftware,KiCad,Pcbnew,9.0.2+dfsg-1*%
%TF.CreationDate,2026-04-22T21:52:17-05:00*%
%TF.ProjectId,defcon_badge_main,64656663-6f6e-45f6-9261-6467655f6d61,rev?*%
%TF.SameCoordinates,Original*%
%TF.FileFunction,Soldermask,Top*%
%TF.FilePolarity,Negative*%
%FSLAX46Y46*%
G04 Gerber Fmt 4.6, Leading zero omitted, Abs format (unit mm)*
G04 Created by KiCad (PCBNEW 9.0.2+dfsg-1) date 2026-04-22 21:52:17*
%MOMM*%
%LPD*%
G01*
G04 APERTURE LIST*
G04 Aperture macros list*
%AMRoundRect*
0 Rectangle with rounded corners*
0 $1 Rounding radius*
0 $2 $3 $4 $5 $6 $7 $8 $9 X,Y pos of 4 corners*
0 Add a 4 corners polygon primitive as box body*
4,1,4,$2,$3,$4,$5,$6,$7,$8,$9,$2,$3,0*
0 Add four circle primitives for the rounded corners*
1,1,$1+$1,$2,$3*
1,1,$1+$1,$4,$5*
1,1,$1+$1,$6,$7*
1,1,$1+$1,$8,$9*
0 Add four rect primitives between the rounded corners*
20,1,$1+$1,$2,$3,$4,$5,0*
20,1,$1+$1,$4,$5,$6,$7,0*
20,1,$1+$1,$6,$7,$8,$9,0*
20,1,$1+$1,$8,$9,$2,$3,0*%
%AMRotRect*
0 Rectangle, with rotation*
0 The origin of the aperture is its center*
0 $1 length*
0 $2 width*
0 $3 Rotation angle, in degrees counterclockwise*
0 Add horizontal line*
21,1,$1,$2,0,0,$3*%
G04 Aperture macros list end*
%ADD10C,2.000000*%
%ADD11R,1.050000X0.650000*%
%ADD12RoundRect,0.114000X-0.266000X0.461000X-0.266000X-0.461000X0.266000X-0.461000X0.266000X0.461000X0*%
%ADD13RotRect,0.850000X0.850000X240.000000*%
%ADD14C,0.850000*%
%ADD15RoundRect,0.237500X0.237500X-0.250000X0.237500X0.250000X-0.237500X0.250000X-0.237500X-0.250000X0*%
%ADD16RoundRect,0.112500X-0.112500X0.202500X-0.112500X-0.202500X0.112500X-0.202500X0.112500X0.202500X0*%
%ADD17R,1.050000X0.800000*%
%ADD18RoundRect,0.237500X-0.250000X-0.237500X0.250000X-0.237500X0.250000X0.237500X-0.250000X0.237500X0*%
%ADD19R,0.850000X0.850000*%
%ADD20RoundRect,0.250000X-0.450000X0.350000X-0.450000X-0.350000X0.450000X-0.350000X0.450000X0.350000X0*%
%ADD21RoundRect,0.250000X-0.350000X-0.450000X0.350000X-0.450000X0.350000X0.450000X-0.350000X0.450000X0*%
%ADD22RoundRect,0.250000X-0.400000X-0.625000X0.400000X-0.625000X0.400000X0.625000X-0.400000X0.625000X0*%
%ADD23RoundRect,0.102000X0.800000X-1.750000X0.800000X1.750000X-0.800000X1.750000X-0.800000X-1.750000X0*%
%ADD24RoundRect,0.237500X-0.237500X0.250000X-0.237500X-0.250000X0.237500X-0.250000X0.237500X0.250000X0*%
%ADD25RoundRect,0.160000X-0.160000X0.197500X-0.160000X-0.197500X0.160000X-0.197500X0.160000X0.197500X0*%
%ADD26RoundRect,0.114000X-0.461000X-0.266000X0.461000X-0.266000X0.461000X0.266000X-0.461000X0.266000X0*%
%ADD27RoundRect,0.250000X-1.024519X0.274519X-0.274519X-1.024519X1.024519X-0.274519X0.274519X1.024519X0*%
%ADD28RoundRect,0.250000X0.450000X-0.350000X0.450000X0.350000X-0.450000X0.350000X-0.450000X-0.350000X0*%
%ADD29RotRect,0.850000X0.850000X120.000000*%
%ADD30RoundRect,0.160000X0.160000X-0.197500X0.160000X0.197500X-0.160000X0.197500X-0.160000X-0.197500X0*%
%ADD31RoundRect,0.160000X0.197500X0.160000X-0.197500X0.160000X-0.197500X-0.160000X0.197500X-0.160000X0*%
%ADD32RoundRect,0.237500X0.250000X0.237500X-0.250000X0.237500X-0.250000X-0.237500X0.250000X-0.237500X0*%
%ADD33RoundRect,0.250000X0.350000X0.450000X-0.350000X0.450000X-0.350000X-0.450000X0.350000X-0.450000X0*%
%ADD34RoundRect,0.102000X1.750000X0.800000X-1.750000X0.800000X-1.750000X-0.800000X1.750000X-0.800000X0*%
%ADD35RotRect,0.850000X0.850000X300.000000*%
%ADD36RoundRect,0.225000X-0.192163X-0.717163X0.717163X-0.192163X0.192163X0.717163X-0.717163X0.192163X0*%
%ADD37R,1.550000X1.300000*%
%ADD38RoundRect,0.250000X-0.625000X0.400000X-0.625000X-0.400000X0.625000X-0.400000X0.625000X0.400000X0*%
%ADD39RotRect,0.850000X0.850000X60.000000*%
%ADD40R,2.500000X0.900000*%
%ADD41R,1.300000X1.300000*%
%ADD42R,0.900000X1.500000*%
%ADD43RoundRect,0.102000X-0.450000X-0.127000X0.450000X-0.127000X0.450000X0.127000X-0.450000X0.127000X0*%
%ADD44RoundRect,0.102000X-0.127000X-0.450000X0.127000X-0.450000X0.127000X0.450000X-0.127000X0.450000X0*%
%ADD45C,0.600000*%
%ADD46RoundRect,0.102000X-1.550000X-1.550000X1.550000X-1.550000X1.550000X1.550000X-1.550000X1.550000X0*%
%ADD47RoundRect,0.250000X-0.750000X-0.750000X0.750000X-0.750000X0.750000X0.750000X-0.750000X0.750000X0*%
%ADD48RoundRect,0.250000X0.274519X-1.024519X1.024519X0.274519X-0.274519X1.024519X-1.024519X-0.274519X0*%
%ADD49RoundRect,0.250000X0.400000X0.625000X-0.400000X0.625000X-0.400000X-0.625000X0.400000X-0.625000X0*%
%ADD50R,1.200000X1.200000*%
%ADD51RoundRect,0.300000X-0.800000X0.700000X-0.800000X-0.700000X0.800000X-0.700000X0.800000X0.700000X0*%
%ADD52RoundRect,0.170500X-0.511500X0.556500X-0.511500X-0.556500X0.511500X-0.556500X0.511500X0.556500X0*%
%ADD53C,1.600000*%
%ADD54R,1.000000X2.700000*%
%ADD55RoundRect,0.170500X-0.556500X-0.511500X0.556500X-0.511500X0.556500X0.511500X-0.556500X0.511500X0*%
%ADD56RoundRect,0.225000X-3.006746X-2.342163X3.531746X1.432837X3.006746X2.342163X-3.531746X-1.432837X0*%
%ADD57RoundRect,0.225000X-2.573733X-2.092163X3.098733X1.182837X2.573733X2.092163X-3.098733X-1.182837X0*%
%ADD58RoundRect,0.160000X-0.197500X-0.160000X0.197500X-0.160000X0.197500X0.160000X-0.197500X0.160000X0*%
%ADD59RoundRect,0.250000X0.625000X-0.400000X0.625000X0.400000X-0.625000X0.400000X-0.625000X-0.400000X0*%
%ADD60RoundRect,0.075000X0.350000X-0.150000X0.350000X0.150000X-0.350000X0.150000X-0.350000X-0.150000X0*%
%ADD61C,1.800000*%
%ADD62O,2.274000X4.344000*%
G04 APERTURE END LIST*
D10*
%TO.C,REF\u002A\u002A*%
X-10500000Y7300000D03*
X-15100000Y4700000D03*
X-15100000Y9800000D03*
%TD*%
D11*
%TO.C,SW_BOOT1*%
X-3175000Y39925000D03*
X-7325000Y39925000D03*
X-3175000Y42075000D03*
X-7325000Y42075000D03*
%TD*%
D12*
%TO.C,Q_RLED1*%
X-20600000Y36600000D03*
X-21550000Y34180000D03*
X-22500000Y36600000D03*
%TD*%
D13*
%TO.C,RED_3*%
X-24066987Y38420565D03*
D14*
X-24933012Y38920565D03*
%TD*%
D15*
%TO.C,C2_M3*%
X-2750001Y-28610001D03*
X-2750001Y-26785001D03*
%TD*%
D16*
%TO.C,U_V8*%
X32950000Y-3650000D03*
X32000000Y-3650000D03*
X31050000Y-3650000D03*
X31050000Y-6330000D03*
X32000000Y-6330000D03*
X32950000Y-6330000D03*
D17*
X32525000Y-4590000D03*
X31475000Y-4590000D03*
X32525000Y-5390000D03*
X31475000Y-5390000D03*
%TD*%
D18*
%TO.C,R_RST_M3*%
X3837499Y-27400000D03*
X5662499Y-27400000D03*
%TD*%
D19*
%TO.C,BLUE_4*%
X23600000Y39900000D03*
D14*
X23600000Y40900000D03*
%TD*%
D20*
%TO.C,C1_EN1*%
X9250000Y42000000D03*
X9250000Y40000000D03*
%TD*%
D21*
%TO.C,R2_GLED1*%
X-25700000Y32200000D03*
X-23700000Y32200000D03*
%TD*%
D22*
%TO.C,R1_V5*%
X34900000Y6300000D03*
X38000000Y6300000D03*
%TD*%
D23*
%TO.C,C2_CHR_M1*%
X-30650000Y-16000000D03*
X-30650000Y-21600000D03*
%TD*%
D24*
%TO.C,C3_M1*%
X-12250000Y-26075000D03*
X-12250000Y-27900000D03*
%TD*%
D25*
%TO.C,R_USB_PUPD-1*%
X17750000Y31897500D03*
X17750000Y30702500D03*
%TD*%
D15*
%TO.C,R_SNS1_M2*%
X17340000Y-17300000D03*
X17340000Y-15475000D03*
%TD*%
D19*
%TO.C,GREEN_4*%
X18800000Y39900000D03*
D14*
X18800000Y40900000D03*
%TD*%
D18*
%TO.C,R_OSC_M2*%
X17927500Y-29000000D03*
X19752500Y-29000000D03*
%TD*%
D26*
%TO.C,Q_GLED1*%
X-21720000Y32350000D03*
X-19300000Y31400000D03*
X-21720000Y30450000D03*
%TD*%
D20*
%TO.C,C_MENU1*%
X-24000000Y29600000D03*
X-24000000Y27600000D03*
%TD*%
D27*
%TO.C,M1*%
X-13750000Y-2437822D03*
X-12000000Y-5468911D03*
X-8500000Y-11531089D03*
X-10250000Y-8500000D03*
%TD*%
D15*
%TO.C,R_SNS1_M1*%
X-18450000Y-17300000D03*
X-18450000Y-15475000D03*
%TD*%
%TO.C,R_SNS2_M2*%
X14340000Y-17300000D03*
X14340000Y-15475000D03*
%TD*%
D28*
%TO.C,C2_V5*%
X34027415Y8800000D03*
X34027415Y10800000D03*
%TD*%
D29*
%TO.C,GREEN_5*%
X44460431Y3707898D03*
D14*
X45326456Y4207898D03*
%TD*%
D15*
%TO.C,R2_CS_M1*%
X-14362500Y-22100000D03*
X-14362500Y-20275000D03*
%TD*%
D28*
%TO.C,C1_V3*%
X33250000Y19000000D03*
X33250000Y21000000D03*
%TD*%
D30*
%TO.C,C_USB_D+1*%
X15450000Y33402500D03*
X15450000Y34597500D03*
%TD*%
D31*
%TO.C,R_USB_D+1*%
X14247500Y33300000D03*
X13052500Y33300000D03*
%TD*%
D32*
%TO.C,R1_CS_M1*%
X-12350000Y-24187500D03*
X-14175000Y-24187500D03*
%TD*%
D33*
%TO.C,R1_RLED1*%
X-16800000Y34700000D03*
X-18800000Y34700000D03*
%TD*%
D15*
%TO.C,C1_CHR_M1*%
X-25050000Y-28812500D03*
X-25050000Y-26987500D03*
%TD*%
D19*
%TO.C,BLUE_1*%
X-23600000Y-40100000D03*
D14*
X-23600000Y-41100000D03*
%TD*%
D24*
%TO.C,R_EN_M1*%
X-25110000Y-19087500D03*
X-25110000Y-20912500D03*
%TD*%
D22*
%TO.C,R3_V8*%
X25050000Y-3990000D03*
X28150000Y-3990000D03*
%TD*%
D21*
%TO.C,C1_V5*%
X41050000Y8500000D03*
X43050000Y8500000D03*
%TD*%
D34*
%TO.C,C2_CHR_M2*%
X24650000Y-17000000D03*
X30250000Y-17000000D03*
%TD*%
D11*
%TO.C,SW_EN1*%
X6825000Y39925000D03*
X2675000Y39925000D03*
X6825000Y42075000D03*
X2675000Y42075000D03*
%TD*%
D32*
%TO.C,R_M3*%
X5662499Y-25800000D03*
X3837499Y-25800000D03*
%TD*%
D18*
%TO.C,R_RST_M2*%
X19850000Y-27400000D03*
X21675000Y-27400000D03*
%TD*%
D35*
%TO.C,GREEN_2*%
X-44066987Y-3706922D03*
D14*
X-44933012Y-4206922D03*
%TD*%
D36*
%TO.C,J_LIM2*%
X8750000Y8910512D03*
X11348076Y10410512D03*
%TD*%
D37*
%TO.C,SW_MENU1*%
X-21520000Y20800000D03*
X-29480000Y20800000D03*
X-21520000Y25300000D03*
X-29480000Y25300000D03*
%TD*%
D15*
%TO.C,C1_CHR_M2*%
X10840000Y-28712500D03*
X10840000Y-26887500D03*
%TD*%
D38*
%TO.C,R2_V3*%
X32750000Y16350000D03*
X32750000Y13250000D03*
%TD*%
D39*
%TO.C,RED_6*%
X24133975Y-38421539D03*
D14*
X25000000Y-38921539D03*
%TD*%
D15*
%TO.C,R_SNS2_M3*%
X-1250001Y-17500001D03*
X-1250001Y-15675001D03*
%TD*%
D20*
%TO.C,C2_V3*%
X25050000Y15000000D03*
X25050000Y13000000D03*
%TD*%
D28*
%TO.C,C_BOOT1*%
X-12400000Y34500000D03*
X-12400000Y36500000D03*
%TD*%
D13*
%TO.C,GREEN_3*%
X-25266987Y36342104D03*
D14*
X-26133012Y36842104D03*
%TD*%
D19*
%TO.C,RED_1*%
X-21200000Y-40100000D03*
D14*
X-21200000Y-41100000D03*
%TD*%
D33*
%TO.C,R2_BLED1*%
X-12400000Y39600000D03*
X-14400000Y39600000D03*
%TD*%
D40*
%TO.C,U3*%
X9629800Y16912000D03*
X9629800Y18182000D03*
X9629800Y19452000D03*
X9629800Y20722000D03*
X9629800Y21992000D03*
X9629800Y23262000D03*
X9629800Y24532000D03*
X9629800Y25802000D03*
X9629800Y27072000D03*
X9629800Y28342000D03*
X9629800Y29612000D03*
X9629800Y30882000D03*
X9629800Y32152000D03*
X9629800Y33422000D03*
X-7870200Y33422000D03*
X-7870200Y32152000D03*
X-7870200Y30882000D03*
X-7870200Y29612000D03*
X-7870200Y28342000D03*
X-7870200Y27072000D03*
X-7870200Y25802000D03*
X-7870200Y24532000D03*
X-7870200Y23262000D03*
X-7870200Y21992000D03*
X-7870200Y20722000D03*
X-7870200Y19452000D03*
X-7870200Y18182000D03*
X-7870200Y16912000D03*
D41*
X1750000Y23800000D03*
X1750000Y25500000D03*
X1750000Y27200000D03*
X50000Y23800000D03*
X50000Y25500000D03*
X50000Y27200000D03*
X-1650000Y23800000D03*
X-1650000Y25500000D03*
X-1650000Y27200000D03*
D42*
X-3120200Y15472000D03*
X-1850200Y15472000D03*
X-580200Y15472000D03*
%TD*%
D24*
%TO.C,R_EN_M2*%
X10850000Y-18875000D03*
X10850000Y-20700000D03*
%TD*%
D32*
%TO.C,R_M2*%
X21675000Y-25800000D03*
X19850000Y-25800000D03*
%TD*%
D28*
%TO.C,C2_EN1*%
X19250000Y20000000D03*
X19250000Y22000000D03*
%TD*%
D30*
%TO.C,R_USB_PUPD+1*%
X17750000Y33602500D03*
X17750000Y34797500D03*
%TD*%
D43*
%TO.C,U6*%
X-2340001Y-21287500D03*
X-2340001Y-21787500D03*
X-2340001Y-22287500D03*
X-2340001Y-22787500D03*
X-2340001Y-23287500D03*
X-2340001Y-23787500D03*
X-2340001Y-24287500D03*
D44*
X-1250001Y-25377500D03*
X-750001Y-25377500D03*
X-250001Y-25377500D03*
X249999Y-25377500D03*
X749999Y-25377500D03*
X1249999Y-25377500D03*
X1749999Y-25377500D03*
D43*
X2839999Y-24287500D03*
X2839999Y-23787500D03*
X2839999Y-23287500D03*
X2839999Y-22787500D03*
X2839999Y-22287500D03*
X2839999Y-21787500D03*
X2839999Y-21287500D03*
D44*
X1749999Y-20197500D03*
X1249999Y-20197500D03*
X749999Y-20197500D03*
X249999Y-20197500D03*
X-250001Y-20197500D03*
X-750001Y-20197500D03*
X-1250001Y-20197500D03*
D45*
X-750001Y-21787500D03*
X-750001Y-22787500D03*
X-750001Y-23787500D03*
X249999Y-21787500D03*
X249999Y-22787500D03*
D46*
X249999Y-22787500D03*
D45*
X249999Y-23787500D03*
X1249999Y-21787500D03*
X1249999Y-22787500D03*
X1249999Y-23787500D03*
%TD*%
D47*
%TO.C,M3*%
X-5250000Y-12500000D03*
X-1750000Y-12500000D03*
X5250000Y-12500000D03*
X1750000Y-12500000D03*
%TD*%
D24*
%TO.C,R_EN_M3*%
X-4750000Y-19275000D03*
X-4750000Y-21100000D03*
%TD*%
D48*
%TO.C,M2*%
X8625000Y-12046634D03*
X10375000Y-9015545D03*
X13875000Y-2953367D03*
X12125000Y-5984456D03*
%TD*%
D15*
%TO.C,C1_M3*%
X-4750001Y-24522501D03*
X-4750001Y-22697501D03*
%TD*%
D49*
%TO.C,R2_V5*%
X35777415Y3800000D03*
X32677415Y3800000D03*
%TD*%
D20*
%TO.C,C2_DC3*%
X14250000Y17937500D03*
X14250000Y15937500D03*
%TD*%
D19*
%TO.C,RED_4*%
X21200000Y39900000D03*
D14*
X21200000Y40900000D03*
%TD*%
D36*
%TO.C,J_LIM6*%
X13150000Y1289488D03*
X15748076Y2789488D03*
%TD*%
D20*
%TO.C,C_LIM1*%
X16950000Y16100000D03*
X16950000Y14100000D03*
%TD*%
D39*
%TO.C,GREEN_6*%
X25333975Y-36343078D03*
D14*
X26200000Y-36843078D03*
%TD*%
D28*
%TO.C,R1_BLED1*%
X-14600000Y34500000D03*
X-14600000Y36500000D03*
%TD*%
D35*
%TO.C,BLUE_2*%
X-46466987Y450000D03*
D14*
X-47333012Y-50000D03*
%TD*%
D23*
%TO.C,C2_CHR_M3*%
X-9750001Y-16487500D03*
X-9750001Y-22087500D03*
%TD*%
D38*
%TO.C,R2_LIM1*%
X19350000Y12450000D03*
X19350000Y9350000D03*
%TD*%
D22*
%TO.C,R1_V8*%
X28125000Y-390000D03*
X31225000Y-390000D03*
%TD*%
D18*
%TO.C,R_OSC_M3*%
X1787500Y-29000000D03*
X3612500Y-29000000D03*
%TD*%
%TO.C,C3_M2*%
X23537500Y-24799999D03*
X25362500Y-24799999D03*
%TD*%
D36*
%TO.C,J_LIM4*%
X10950000Y5100000D03*
X13548076Y6600000D03*
%TD*%
D50*
%TO.C,D_LIM1*%
X16950000Y10600000D03*
X16950000Y7400000D03*
%TD*%
D15*
%TO.C,C1_M1*%
X-25110000Y-24325000D03*
X-25110000Y-22500000D03*
%TD*%
%TO.C,R_SNS1_M3*%
X1750000Y-17500000D03*
X1750000Y-15675000D03*
%TD*%
D19*
%TO.C,GREEN_1*%
X-18800000Y-40100000D03*
D14*
X-18800000Y-41100000D03*
%TD*%
D51*
%TO.C,L_V8*%
X39500000Y-1600000D03*
X39500000Y-7500000D03*
%TD*%
D43*
%TO.C,U8*%
X-22540000Y-21000000D03*
X-22540000Y-21500000D03*
X-22540000Y-22000000D03*
X-22540000Y-22500000D03*
X-22540000Y-23000000D03*
X-22540000Y-23500000D03*
X-22540000Y-24000000D03*
D44*
X-21450000Y-25090000D03*
X-20950000Y-25090000D03*
X-20450000Y-25090000D03*
X-19950000Y-25090000D03*
X-19450000Y-25090000D03*
X-18950000Y-25090000D03*
X-18450000Y-25090000D03*
D43*
X-17360000Y-24000000D03*
X-17360000Y-23500000D03*
X-17360000Y-23000000D03*
X-17360000Y-22500000D03*
X-17360000Y-22000000D03*
X-17360000Y-21500000D03*
X-17360000Y-21000000D03*
D44*
X-18450000Y-19910000D03*
X-18950000Y-19910000D03*
X-19450000Y-19910000D03*
X-19950000Y-19910000D03*
X-20450000Y-19910000D03*
X-20950000Y-19910000D03*
X-21450000Y-19910000D03*
D45*
X-20950000Y-21500000D03*
X-20950000Y-22500000D03*
X-20950000Y-23500000D03*
X-19950000Y-21500000D03*
X-19950000Y-22500000D03*
D46*
X-19950000Y-22500000D03*
D45*
X-19950000Y-23500000D03*
X-18950000Y-21500000D03*
X-18950000Y-22500000D03*
X-18950000Y-23500000D03*
%TD*%
D52*
%TO.C,D_8V2*%
X31300000Y6270000D03*
X31300000Y9330000D03*
%TD*%
D15*
%TO.C,C2_M2*%
X13040000Y-28212500D03*
X13040000Y-26387500D03*
%TD*%
D36*
%TO.C,J_LIM5*%
X12050000Y3194744D03*
X14648076Y4694744D03*
%TD*%
D15*
%TO.C,R2_CS_M3*%
X5749999Y-21200001D03*
X5749999Y-19375001D03*
%TD*%
D53*
%TO.C,J2*%
X-33600000Y12550000D03*
X-19150000Y-1900000D03*
X-29600000Y12550000D03*
X-19150000Y2100000D03*
X-31600000Y12550000D03*
X-19150000Y100000D03*
%TD*%
D20*
%TO.C,R2_EN1*%
X21750000Y20000000D03*
X21750000Y18000000D03*
%TD*%
D32*
%TO.C,R_M1*%
X-13950000Y-26187500D03*
X-15775000Y-26187500D03*
%TD*%
D21*
%TO.C,R1_EN1*%
X11250000Y42000000D03*
X13250000Y42000000D03*
%TD*%
D54*
%TO.C,L_V3*%
X30850000Y21500000D03*
X28650000Y21500000D03*
%TD*%
D55*
%TO.C,D_8V1*%
X34267500Y-10890000D03*
X31207500Y-10890000D03*
%TD*%
D32*
%TO.C,R1_CS_M2*%
X23175000Y-22900000D03*
X21350000Y-22900000D03*
%TD*%
D43*
%TO.C,U5*%
X13260000Y-20900000D03*
X13260000Y-21400000D03*
X13260000Y-21900000D03*
X13260000Y-22400000D03*
X13260000Y-22900000D03*
X13260000Y-23400000D03*
X13260000Y-23900000D03*
D44*
X14350000Y-24990000D03*
X14850000Y-24990000D03*
X15350000Y-24990000D03*
X15850000Y-24990000D03*
X16350000Y-24990000D03*
X16850000Y-24990000D03*
X17350000Y-24990000D03*
D43*
X18440000Y-23900000D03*
X18440000Y-23400000D03*
X18440000Y-22900000D03*
X18440000Y-22400000D03*
X18440000Y-21900000D03*
X18440000Y-21400000D03*
X18440000Y-20900000D03*
D44*
X17350000Y-19810000D03*
X16850000Y-19810000D03*
X16350000Y-19810000D03*
X15850000Y-19810000D03*
X15350000Y-19810000D03*
X14850000Y-19810000D03*
X14350000Y-19810000D03*
D45*
X14850000Y-21400000D03*
X14850000Y-22400000D03*
X14850000Y-23400000D03*
X15850000Y-21400000D03*
X15850000Y-22400000D03*
D46*
X15850000Y-22400000D03*
D45*
X15850000Y-23400000D03*
X16850000Y-21400000D03*
X16850000Y-22400000D03*
X16850000Y-23400000D03*
%TD*%
D25*
%TO.C,C2_V8*%
X30750000Y-7702500D03*
X30750000Y-8897500D03*
%TD*%
D20*
%TO.C,R2_RLED1*%
X-20000000Y41200000D03*
X-20000000Y39200000D03*
%TD*%
D15*
%TO.C,C1_M2*%
X10840000Y-24112500D03*
X10840000Y-22287500D03*
%TD*%
%TO.C,C1_CHR_M3*%
X-4750001Y-29110001D03*
X-4750001Y-27285001D03*
%TD*%
D18*
%TO.C,R_RST_M1*%
X-15775000Y-27787500D03*
X-13950000Y-27787500D03*
%TD*%
D56*
%TO.C,U1*%
X35172590Y38116823D03*
D57*
X35989577Y35701759D03*
X36989577Y33969709D03*
D56*
X38672590Y32054645D03*
%TD*%
D24*
%TO.C,C3_M3*%
X7749999Y-25785001D03*
X7749999Y-27610001D03*
%TD*%
D15*
%TO.C,C2_M1*%
X-22950000Y-28412500D03*
X-22950000Y-26587500D03*
%TD*%
D28*
%TO.C,C3_V8*%
X21550000Y-13700000D03*
X21550000Y-11700000D03*
%TD*%
D32*
%TO.C,R1_CS_M3*%
X7662500Y-23287501D03*
X5837500Y-23287501D03*
%TD*%
D26*
%TO.C,Q_BLED1*%
X-18220000Y38950000D03*
X-15800000Y38000000D03*
X-18220000Y37050000D03*
%TD*%
D35*
%TO.C,RED_2*%
X-45266987Y-1628461D03*
D14*
X-46133012Y-2128461D03*
%TD*%
D58*
%TO.C,R_USB_D-1*%
X13052500Y32200000D03*
X14247500Y32200000D03*
%TD*%
D33*
%TO.C,R1_GLED1*%
X-10700000Y27500000D03*
X-12700000Y27500000D03*
%TD*%
D28*
%TO.C,R_MENU1*%
X-26400000Y27600000D03*
X-26400000Y29600000D03*
%TD*%
D13*
%TO.C,BLUE_3*%
X-22866987Y40499026D03*
D14*
X-23733012Y40999026D03*
%TD*%
D36*
%TO.C,J_LIM3*%
X9850000Y7005256D03*
X12448076Y8505256D03*
%TD*%
D39*
%TO.C,BLUE_6*%
X22933975Y-40500000D03*
D14*
X23800000Y-41000000D03*
%TD*%
D29*
%TO.C,BLUE_5*%
X46860431Y-449024D03*
D14*
X47726456Y50976D03*
%TD*%
D18*
%TO.C,R_OSC_M1*%
X-19312500Y-29100000D03*
X-17487500Y-29100000D03*
%TD*%
D54*
%TO.C,L_V5*%
X38500000Y12200000D03*
X36300000Y12200000D03*
%TD*%
D15*
%TO.C,R_SNS2_M1*%
X-21550000Y-17312500D03*
X-21550000Y-15487500D03*
%TD*%
D20*
%TO.C,R_BOOT1*%
X-10250000Y36500000D03*
X-10250000Y34500000D03*
%TD*%
D59*
%TO.C,R2_V8*%
X28550000Y-11650000D03*
X28550000Y-8550000D03*
%TD*%
D38*
%TO.C,R1_LIM1*%
X19350000Y17750000D03*
X19350000Y14650000D03*
%TD*%
D60*
%TO.C,U_5V1*%
X38450000Y8200000D03*
X38450000Y8700000D03*
X38450000Y9200000D03*
X36950000Y9200000D03*
X36950000Y8700000D03*
X36950000Y8200000D03*
%TD*%
D20*
%TO.C,C1_V8*%
X33200000Y-90000D03*
X33200000Y-2090000D03*
%TD*%
D25*
%TO.C,D1*%
X19550000Y34797500D03*
X19550000Y33602500D03*
%TD*%
D18*
%TO.C,R2_CS_M2*%
X21350000Y-21200000D03*
X23175000Y-21200000D03*
%TD*%
D25*
%TO.C,C_USB_D-1*%
X15450000Y32097500D03*
X15450000Y30902500D03*
%TD*%
D22*
%TO.C,R1_V3*%
X27200000Y15500000D03*
X30300000Y15500000D03*
%TD*%
D29*
%TO.C,RED_5*%
X45660431Y1629437D03*
D14*
X46526456Y2129437D03*
%TD*%
D36*
%TO.C,J_LIM1*%
X7650000Y10815768D03*
X10248076Y12315768D03*
%TD*%
D30*
%TO.C,D2*%
X19550000Y30702500D03*
X19550000Y31897500D03*
%TD*%
D61*
%TO.C,U4*%
X19800000Y-40480000D03*
X19800000Y-37940000D03*
X19800000Y-35400000D03*
X19800000Y-32860000D03*
%TD*%
D20*
%TO.C,C1_DC3*%
X12250000Y17937500D03*
X12250000Y15937500D03*
%TD*%
D60*
%TO.C,U_3V1*%
X30750000Y17500000D03*
X30750000Y18000000D03*
X30750000Y18500000D03*
X29250000Y18500000D03*
X29250000Y18000000D03*
X29250000Y17500000D03*
%TD*%
D62*
%TO.C,BT2*%
X35600000Y100000D03*
X-37300000Y100000D03*
%TD*%
M02*
