%TF.GenerationSoftware,KiCad,Pcbnew,9.0.2+dfsg-1*%
%TF.CreationDate,2026-04-22T21:52:17-05:00*%
%TF.ProjectId,defcon_badge_main,64656663-6f6e-45f6-9261-6467655f6d61,rev?*%
%TF.SameCoordinates,Original*%
%TF.FileFunction,Legend,Top*%
%TF.FilePolarity,Positive*%
%FSLAX46Y46*%
G04 Gerber Fmt 4.6, Leading zero omitted, Abs format (unit mm)*
G04 Created by KiCad (PCBNEW 9.0.2+dfsg-1) date 2026-04-22 21:52:17*
%MOMM*%
%LPD*%
G01*
G04 APERTURE LIST*
%ADD10C,0.100000*%
%ADD11C,0.120000*%
%ADD12C,0.150000*%
%ADD13C,0.200000*%
%ADD14C,0.127000*%
%ADD15C,0.203200*%
G04 APERTURE END LIST*
D10*
X9250000Y-4250000D02*
X9241632Y-4268165D01*
X9066828Y-4627919D02*
X9057718Y-4645724D01*
X8868223Y-4997961D02*
X8858387Y-5015375D01*
X8654525Y-5359497D02*
X8643978Y-5376490D01*
X8426095Y-5711910D02*
X8414857Y-5728454D01*
X8183325Y-6054601D02*
X8171413Y-6070667D01*
X7926625Y-6386987D02*
X7914062Y-6402549D01*
X7656435Y-6708503D02*
X7643240Y-6723532D01*
X7373212Y-7018599D02*
X7359409Y-7033072D01*
X7077441Y-7316750D02*
X7063052Y-7330641D01*
X6769622Y-7602448D02*
X6754673Y-7615733D01*
X6450282Y-7875205D02*
X6434797Y-7887863D01*
X6119963Y-8134559D02*
X6103969Y-8146567D01*
X5779228Y-8380067D02*
X5762752Y-8391406D01*
X5428656Y-8611312D02*
X5411726Y-8621961D01*
X5068844Y-8827900D02*
X5051490Y-8837842D01*
X4700404Y-9029463D02*
X4682655Y-9038680D01*
X4323965Y-9215657D02*
X4305850Y-9224134D01*
X3940165Y-9386165D02*
X3921717Y-9393888D01*
X3549660Y-9540698D02*
X3530908Y-9547653D01*
X3153113Y-9678992D02*
X3134090Y-9685168D01*
X2751199Y-9800812D02*
X2731937Y-9806198D01*
X2344602Y-9905950D02*
X2325135Y-9910537D01*
X1934014Y-9994228D02*
X1914375Y-9998008D01*
X1520135Y-10065495D02*
X1500357Y-10068462D01*
X1103669Y-10119630D02*
X1083784Y-10121779D01*
X685324Y-10156541D02*
X665368Y-10157868D01*
X265812Y-10176165D02*
X245819Y-10176668D01*
X-154152Y-10178469D02*
X-174149Y-10178147D01*
X-573853Y-10163449D02*
X-593820Y-10162302D01*
X-992578Y-10131130D02*
X-1012481Y-10129160D01*
X-1409613Y-10081567D02*
X-1429418Y-10078778D01*
X-1824249Y-10014845D02*
X-1843922Y-10011241D01*
X-2235781Y-9931077D02*
X-2255288Y-9926665D01*
X-2643506Y-9830406D02*
X-2662815Y-9825193D01*
X-3046733Y-9713003D02*
X-3065810Y-9706998D01*
X-3444773Y-9579068D02*
X-3463587Y-9572281D01*
X-3836951Y-9428829D02*
X-3855468Y-9421272D01*
X-4222598Y-9262541D02*
X-4240788Y-9254227D01*
X-4601058Y-9080488D02*
X-4618889Y-9071431D01*
X-4971686Y-8882980D02*
X-4989129Y-8873195D01*
X-5333853Y-8670353D02*
X-5350877Y-8659857D01*
X-5686941Y-8442968D02*
X-5703517Y-8431778D01*
X-6030349Y-8201213D02*
X-6046450Y-8189349D01*
X-6363494Y-7945499D02*
X-6379092Y-7932981D01*
X-6685807Y-7676261D02*
X-6700876Y-7663111D01*
X-6996741Y-7393958D02*
X-7011255Y-7380197D01*
X-7295766Y-7099070D02*
X-7309700Y-7084722D01*
X-7582374Y-6792099D02*
X-7595704Y-6777189D01*
X-7856076Y-6473568D02*
X-7868779Y-6458120D01*
X-8116406Y-6144018D02*
X-8128462Y-6128060D01*
X-8362922Y-5804011D02*
X-8374309Y-5787569D01*
X-8595204Y-5454125D02*
X-8605903Y-5437227D01*
X-8812856Y-5094955D02*
X-8822849Y-5077631D01*
X-9015508Y-4727114D02*
X-9024778Y-4709393D01*
X-9202816Y-4351228D02*
X-9211347Y-4333138D01*
X-9374460Y-3967935D02*
X-9382237Y-3949509D01*
X-9530148Y-3577888D02*
X-9537159Y-3559158D01*
X-9669615Y-3181752D02*
X-9675847Y-3162748D01*
X-9792624Y-2780201D02*
X-9798067Y-2760956D01*
X-9898966Y-2373917D02*
X-9903610Y-2354464D01*
X-9988459Y-1963593D02*
X-9992297Y-1943964D01*
X-10060951Y-1549926D02*
X-10063976Y-1530156D01*
X-10116319Y-1133622D02*
X-10118526Y-1113744D01*
X-10154468Y-715388D02*
X-10155854Y-695436D01*
X-10175334Y-295936D02*
X-10175896Y-275944D01*
X-10178881Y124019D02*
X-10178618Y144017D01*
X-10165103Y543763D02*
X-10164015Y563733D01*
X-10134024Y962582D02*
X-10132113Y982490D01*
X-10085696Y1379762D02*
X-10082965Y1399575D01*
X-10020201Y1794594D02*
X-10016656Y1814277D01*
X-9937652Y2206371D02*
X-9933298Y2225891D01*
X-9838188Y2614393D02*
X-9833033Y2633717D01*
X-9721980Y3017965D02*
X-9716031Y3037060D01*
X-9589223Y3416401D02*
X-9582493Y3435234D01*
X-9440146Y3809021D02*
X-9432644Y3827561D01*
X-9275001Y4195159D02*
X-9266741Y4213373D01*
X-9094069Y4574156D02*
X-9085065Y4592014D01*
X-8897659Y4945367D02*
X-8887926Y4962839D01*
X-8686105Y5308162D02*
X-8675659Y5325217D01*
X-8459766Y5661921D02*
X-8448626Y5678531D01*
X-8219029Y6006044D02*
X-8207213Y6022180D01*
X-7964302Y6339944D02*
X-7951831Y6355579D01*
X-7696020Y6663053D02*
X-7682914Y6678161D01*
X-7414639Y6974822D02*
X-7400921Y6989376D01*
X-7120637Y7274718D02*
X-7106331Y7288694D01*
X-6814516Y7562233D02*
X-6799645Y7575607D01*
X-6496796Y7836877D02*
X-6481386Y7849626D01*
X-6168018Y8098182D02*
X-6152096Y8110284D01*
X-5828743Y8345703D02*
X-5812334Y8357139D01*
X-5479546Y8579020D02*
X-5462680Y8589769D01*
X-5121023Y8797734D02*
X-5103728Y8807779D01*
X-4753783Y9001475D02*
X-4736089Y9010797D01*
X-4378452Y9189894D02*
X-4360389Y9198479D01*
X-3995669Y9362672D02*
X-3977267Y9370504D01*
X-3606086Y9519514D02*
X-3587376Y9526580D01*
X-3210364Y9660153D02*
X-3191379Y9666442D01*
X-2809178Y9784351D02*
X-2789950Y9789851D01*
X-2403211Y9891894D02*
X-2383772Y9896597D01*
X-1993154Y9982602D02*
X-1973537Y9986498D01*
X-1579704Y10056318D02*
X-1559943Y10059402D01*
X-1163565Y10112918D02*
X-1143694Y10115185D01*
X-745446Y10152306D02*
X-725498Y10153751D01*
X-326058Y10174413D02*
X-306068Y10175034D01*
X93885Y10179204D02*
X113884Y10178999D01*
X513668Y10166668D02*
X533641Y10165640D01*
X932577Y10136829D02*
X952491Y10134977D01*
X1349898Y10089736D02*
X1369719Y10087064D01*
X1764922Y10025470D02*
X1784616Y10021983D01*
X2176942Y9944140D02*
X2196475Y9939844D01*
X2585257Y9845885D02*
X2604596Y9840787D01*
X2989171Y9730871D02*
X3008284Y9724980D01*
X3387998Y9599295D02*
X3406851Y9592620D01*
X3781058Y9451381D02*
X3799620Y9443934D01*
X4167683Y9287380D02*
X4185922Y9279173D01*
X4547214Y9107571D02*
X4565099Y9098619D01*
X4919005Y8912261D02*
X4936506Y8902579D01*
X5282424Y8701781D02*
X5299510Y8691386D01*
X5636852Y8476491D02*
X5653495Y8465400D01*
X5981686Y8236773D02*
X5997857Y8225005D01*
X6316339Y7983036D02*
X6332011Y7970611D01*
X6640241Y7715711D02*
X6655387Y7702650D01*
X6952841Y7435254D02*
X6967435Y7421580D01*
X7253607Y7142142D02*
X7267625Y7127877D01*
X7542027Y6836873D02*
X7555444Y6822042D01*
X7817610Y6519968D02*
X7830404Y6504596D01*
X8079887Y6191965D02*
X8092036Y6176079D01*
X8328411Y5853423D02*
X8339895Y5837049D01*
X8562760Y5504919D02*
X8573560Y5488085D01*
X8782536Y5147045D02*
X8792631Y5129780D01*
X8987362Y4780410D02*
X8996737Y4762743D01*
X9176892Y4405639D02*
X9185530Y4387601D01*
X9350802Y4023369D02*
X9358689Y4004990D01*
X9508797Y3634251D02*
X9515919Y3615562D01*
X9650607Y3238948D02*
X9656952Y3219981D01*
X9775991Y2838131D02*
X9781549Y2818919D01*
X9884737Y2432485D02*
X9889497Y2413059D01*
X9976658Y2022697D02*
X9980612Y2003092D01*
X10051598Y1609467D02*
X10054740Y1589716D01*
X10109429Y1193498D02*
X10111755Y1173634D01*
X10150054Y775497D02*
X10151558Y755554D01*
X10173403Y356177D02*
X10174084Y336188D01*
X10179437Y-63750D02*
X10179292Y-83750D01*
X10168144Y-483568D02*
X10167175Y-503545D01*
X10139545Y-902564D02*
X10137752Y-922483D01*
X10093688Y-1320023D02*
X10091075Y-1339851D01*
X10030651Y-1735235D02*
X10027222Y-1754939D01*
X9950541Y-2147494D02*
X9946303Y-2167040D01*
X9853495Y-2556098D02*
X9848454Y-2575452D01*
X9739678Y-2960351D02*
X9733843Y-2979481D01*
X9609283Y-3359565D02*
X9602664Y-3378438D01*
X9462533Y-3753062D02*
X9455141Y-3771646D01*
X9299677Y-4140170D02*
X9291525Y-4158433D01*
X5500000Y0D02*
X5499964Y-20000D01*
X5483971Y-419592D02*
X5482409Y-439531D01*
X5435979Y-836738D02*
X5432901Y-856500D01*
X5356303Y-1249008D02*
X5351726Y-1268477D01*
X5245407Y-1653997D02*
X5239358Y-1673060D01*
X5103938Y-2049346D02*
X5096452Y-2067892D01*
X4932720Y-2432750D02*
X4923841Y-2450671D01*
X4732752Y-2801975D02*
X4722531Y-2819166D01*
X4505198Y-3154868D02*
X4493696Y-3171230D01*
X4251385Y-3489373D02*
X4238669Y-3504809D01*
X3972793Y-3803540D02*
X3958936Y-3817961D01*
X3671046Y-4095537D02*
X3656128Y-4108859D01*
X3347901Y-4363664D02*
X3332011Y-4375809D01*
X3005243Y-4606356D02*
X2988472Y-4617254D01*
X2645068Y-4822200D02*
X2627515Y-4831787D01*
X2269477Y-5009938D02*
X2251244Y-5018157D01*
X1880657Y-5168474D02*
X1861851Y-5175279D01*
X1480877Y-5296886D02*
X1461606Y-5302236D01*
X1072465Y-5394425D02*
X1052841Y-5398289D01*
X657801Y-5460522D02*
X637941Y-5462878D01*
X239304Y-5494791D02*
X219322Y-5495625D01*
X-180588Y-5497034D02*
X-200576Y-5496341D01*
X-599427Y-5467238D02*
X-619304Y-5465022D01*
X-1014773Y-5405575D02*
X-1034423Y-5401849D01*
X-1424204Y-5312405D02*
X-1443512Y-5307191D01*
X-1825333Y-5188271D02*
X-1844188Y-5181599D01*
X-2215824Y-5033897D02*
X-2234115Y-5025807D01*
X-2593400Y-4850183D02*
X-2611020Y-4840721D01*
X-2955860Y-4638199D02*
X-2972706Y-4627420D01*
X-3301091Y-4399181D02*
X-3317066Y-4387148D01*
X-3627082Y-4134523D02*
X-3642093Y-4121306D01*
X-3931932Y-3845765D02*
X-3945891Y-3831442D01*
X-4213865Y-3534593D02*
X-4226690Y-3519246D01*
X-4471236Y-3202819D02*
X-4482853Y-3186538D01*
X-4702547Y-2852377D02*
X-4712888Y-2835258D01*
X-4906449Y-2485309D02*
X-4915454Y-2467451D01*
X-5081753Y-2103756D02*
X-5089369Y-2085263D01*
X-5227437Y-1709941D02*
X-5233621Y-1690921D01*
X-5342654Y-1306160D02*
X-5347368Y-1286723D01*
X-5426730Y-894765D02*
X-5429948Y-875026D01*
X-5479176Y-478155D02*
X-5480878Y-458228D01*
X-5499686Y-58758D02*
X-5499863Y-38759D01*
X-5488141Y360981D02*
X-5486792Y380935D01*
X-5444608Y778616D02*
X-5441741Y798409D01*
X-5369341Y1191713D02*
X-5364972Y1211230D01*
X-5262778Y1597864D02*
X-5256933Y1616991D01*
X-5125540Y1994702D02*
X-5118253Y2013327D01*
X-4958429Y2379913D02*
X-4949742Y2397928D01*
X-4762416Y2751253D02*
X-4752380Y2768553D01*
X-4538645Y3106557D02*
X-4527319Y3123041D01*
X-4288421Y3443755D02*
X-4275870Y3459326D01*
X-4013201Y3760880D02*
X-3999499Y3775448D01*
X-3714590Y4056084D02*
X-3699816Y4069565D01*
X-3394328Y4327648D02*
X-3378569Y4339962D01*
X-3054282Y4573987D02*
X-3037630Y4585063D01*
X-2696435Y4793667D02*
X-2678985Y4803440D01*
X-2322870Y4985406D02*
X-2304726Y4993820D01*
X-1935767Y5148088D02*
X-1917034Y5155093D01*
X-1537381Y5280763D02*
X-1518168Y5286319D01*
X-1130034Y5382660D02*
X-1110453Y5386733D01*
X-716101Y5453183D02*
X-696266Y5455750D01*
X-297993Y5491921D02*
X-278021Y5492969D01*
X121851Y5498650D02*
X141845Y5498171D01*
X540984Y5473329D02*
X560884Y5471326D01*
X956965Y5416107D02*
X976654Y5412592D01*
X1367368Y5327317D02*
X1386731Y5322309D01*
X1769801Y5207476D02*
X1788726Y5201006D01*
X2161919Y5057283D02*
X2180295Y5049388D01*
X2541436Y4877613D02*
X2559156Y4868339D01*
X2906140Y4669513D02*
X2923100Y4658915D01*
X3253905Y4434197D02*
X3270008Y4422335D01*
X3582704Y4173036D02*
X3597855Y4159980D01*
X3890622Y3887552D02*
X3904733Y3873379D01*
X4175863Y3579409D02*
X4188851Y3564201D01*
X4436764Y3250404D02*
X4448554Y3234248D01*
X4671806Y2902453D02*
X4682329Y2885445D01*
X4879617Y2537585D02*
X4888812Y2519824D01*
X5058987Y2157926D02*
X5066801Y2139516D01*
X5208871Y1765690D02*
X5215257Y1746737D01*
X5328395Y1363163D02*
X5333316Y1343778D01*
X5416861Y952690D02*
X5420289Y932986D01*
X5473755Y536664D02*
X5475670Y516756D01*
X5498745Y117510D02*
X5499135Y97514D01*
D11*
X-12992481Y-40871379D02*
X-12897243Y-40871379D01*
X-12897243Y-40871379D02*
X-12802005Y-40918998D01*
X-12802005Y-40918998D02*
X-12754386Y-40966617D01*
X-12754386Y-40966617D02*
X-12706767Y-41061855D01*
X-12706767Y-41061855D02*
X-12659148Y-41252331D01*
X-12659148Y-41252331D02*
X-12659148Y-41490426D01*
X-12659148Y-41490426D02*
X-12706767Y-41680902D01*
X-12706767Y-41680902D02*
X-12754386Y-41776140D01*
X-12754386Y-41776140D02*
X-12802005Y-41823760D01*
X-12802005Y-41823760D02*
X-12897243Y-41871379D01*
X-12897243Y-41871379D02*
X-12992481Y-41871379D01*
X-12992481Y-41871379D02*
X-13087719Y-41823760D01*
X-13087719Y-41823760D02*
X-13135338Y-41776140D01*
X-13135338Y-41776140D02*
X-13182957Y-41680902D01*
X-13182957Y-41680902D02*
X-13230576Y-41490426D01*
X-13230576Y-41490426D02*
X-13230576Y-41252331D01*
X-13230576Y-41252331D02*
X-13182957Y-41061855D01*
X-13182957Y-41061855D02*
X-13135338Y-40966617D01*
X-13135338Y-40966617D02*
X-13087719Y-40918998D01*
X-13087719Y-40918998D02*
X-12992481Y-40871379D01*
X-12325814Y-41871379D02*
X-11802005Y-41204712D01*
X-12325814Y-41204712D02*
X-11802005Y-41871379D01*
X-10897243Y-41871379D02*
X-11468671Y-41871379D01*
X-11182957Y-41871379D02*
X-11182957Y-40871379D01*
X-11182957Y-40871379D02*
X-11278195Y-41014236D01*
X-11278195Y-41014236D02*
X-11373433Y-41109474D01*
X-11373433Y-41109474D02*
X-11468671Y-41157093D01*
X-10087719Y-41823760D02*
X-10182957Y-41871379D01*
X-10182957Y-41871379D02*
X-10373433Y-41871379D01*
X-10373433Y-41871379D02*
X-10468671Y-41823760D01*
X-10468671Y-41823760D02*
X-10516290Y-41728521D01*
X-10516290Y-41728521D02*
X-10516290Y-41347569D01*
X-10516290Y-41347569D02*
X-10468671Y-41252331D01*
X-10468671Y-41252331D02*
X-10373433Y-41204712D01*
X-10373433Y-41204712D02*
X-10182957Y-41204712D01*
X-10182957Y-41204712D02*
X-10087719Y-41252331D01*
X-10087719Y-41252331D02*
X-10040100Y-41347569D01*
X-10040100Y-41347569D02*
X-10040100Y-41442807D01*
X-10040100Y-41442807D02*
X-10516290Y-41538045D01*
X-9182957Y-41871379D02*
X-9182957Y-41347569D01*
X-9182957Y-41347569D02*
X-9230576Y-41252331D01*
X-9230576Y-41252331D02*
X-9325814Y-41204712D01*
X-9325814Y-41204712D02*
X-9516290Y-41204712D01*
X-9516290Y-41204712D02*
X-9611528Y-41252331D01*
X-9182957Y-41823760D02*
X-9278195Y-41871379D01*
X-9278195Y-41871379D02*
X-9516290Y-41871379D01*
X-9516290Y-41871379D02*
X-9611528Y-41823760D01*
X-9611528Y-41823760D02*
X-9659147Y-41728521D01*
X-9659147Y-41728521D02*
X-9659147Y-41633283D01*
X-9659147Y-41633283D02*
X-9611528Y-41538045D01*
X-9611528Y-41538045D02*
X-9516290Y-41490426D01*
X-9516290Y-41490426D02*
X-9278195Y-41490426D01*
X-9278195Y-41490426D02*
X-9182957Y-41442807D01*
X-8802004Y-40871379D02*
X-8135338Y-40871379D01*
X-8135338Y-40871379D02*
X-8563909Y-41871379D01*
X-7754385Y-41871379D02*
X-7754385Y-40871379D01*
X-7754385Y-41252331D02*
X-7659147Y-41204712D01*
X-7659147Y-41204712D02*
X-7468671Y-41204712D01*
X-7468671Y-41204712D02*
X-7373433Y-41252331D01*
X-7373433Y-41252331D02*
X-7325814Y-41299950D01*
X-7325814Y-41299950D02*
X-7278195Y-41395188D01*
X-7278195Y-41395188D02*
X-7278195Y-41680902D01*
X-7278195Y-41680902D02*
X-7325814Y-41776140D01*
X-7325814Y-41776140D02*
X-7373433Y-41823760D01*
X-7373433Y-41823760D02*
X-7468671Y-41871379D01*
X-7468671Y-41871379D02*
X-7659147Y-41871379D01*
X-7659147Y-41871379D02*
X-7754385Y-41823760D01*
X-6468671Y-41823760D02*
X-6563909Y-41871379D01*
X-6563909Y-41871379D02*
X-6754385Y-41871379D01*
X-6754385Y-41871379D02*
X-6849623Y-41823760D01*
X-6849623Y-41823760D02*
X-6897242Y-41728521D01*
X-6897242Y-41728521D02*
X-6897242Y-41347569D01*
X-6897242Y-41347569D02*
X-6849623Y-41252331D01*
X-6849623Y-41252331D02*
X-6754385Y-41204712D01*
X-6754385Y-41204712D02*
X-6563909Y-41204712D01*
X-6563909Y-41204712D02*
X-6468671Y-41252331D01*
X-6468671Y-41252331D02*
X-6421052Y-41347569D01*
X-6421052Y-41347569D02*
X-6421052Y-41442807D01*
X-6421052Y-41442807D02*
X-6897242Y-41538045D01*
X-5611528Y-41823760D02*
X-5706766Y-41871379D01*
X-5706766Y-41871379D02*
X-5897242Y-41871379D01*
X-5897242Y-41871379D02*
X-5992480Y-41823760D01*
X-5992480Y-41823760D02*
X-6040099Y-41728521D01*
X-6040099Y-41728521D02*
X-6040099Y-41347569D01*
X-6040099Y-41347569D02*
X-5992480Y-41252331D01*
X-5992480Y-41252331D02*
X-5897242Y-41204712D01*
X-5897242Y-41204712D02*
X-5706766Y-41204712D01*
X-5706766Y-41204712D02*
X-5611528Y-41252331D01*
X-5611528Y-41252331D02*
X-5563909Y-41347569D01*
X-5563909Y-41347569D02*
X-5563909Y-41442807D01*
X-5563909Y-41442807D02*
X-6040099Y-41538045D01*
X-4659147Y-40871379D02*
X-5135337Y-40871379D01*
X-5135337Y-40871379D02*
X-5182956Y-41347569D01*
X-5182956Y-41347569D02*
X-5135337Y-41299950D01*
X-5135337Y-41299950D02*
X-5040099Y-41252331D01*
X-5040099Y-41252331D02*
X-4802004Y-41252331D01*
X-4802004Y-41252331D02*
X-4706766Y-41299950D01*
X-4706766Y-41299950D02*
X-4659147Y-41347569D01*
X-4659147Y-41347569D02*
X-4611528Y-41442807D01*
X-4611528Y-41442807D02*
X-4611528Y-41680902D01*
X-4611528Y-41680902D02*
X-4659147Y-41776140D01*
X-4659147Y-41776140D02*
X-4706766Y-41823760D01*
X-4706766Y-41823760D02*
X-4802004Y-41871379D01*
X-4802004Y-41871379D02*
X-5040099Y-41871379D01*
X-5040099Y-41871379D02*
X-5135337Y-41823760D01*
X-5135337Y-41823760D02*
X-5182956Y-41776140D01*
D10*
X-4667544Y927580D02*
X-4667544Y1927580D01*
X-4667544Y975200D02*
X-4762782Y927580D01*
X-4762782Y927580D02*
X-4953258Y927580D01*
X-4953258Y927580D02*
X-5048496Y975200D01*
X-5048496Y975200D02*
X-5096115Y1022819D01*
X-5096115Y1022819D02*
X-5143734Y1118057D01*
X-5143734Y1118057D02*
X-5143734Y1403771D01*
X-5143734Y1403771D02*
X-5096115Y1499009D01*
X-5096115Y1499009D02*
X-5048496Y1546628D01*
X-5048496Y1546628D02*
X-4953258Y1594247D01*
X-4953258Y1594247D02*
X-4762782Y1594247D01*
X-4762782Y1594247D02*
X-4667544Y1546628D01*
X-4048496Y927580D02*
X-4143734Y975200D01*
X-4143734Y975200D02*
X-4191353Y1022819D01*
X-4191353Y1022819D02*
X-4238972Y1118057D01*
X-4238972Y1118057D02*
X-4238972Y1403771D01*
X-4238972Y1403771D02*
X-4191353Y1499009D01*
X-4191353Y1499009D02*
X-4143734Y1546628D01*
X-4143734Y1546628D02*
X-4048496Y1594247D01*
X-4048496Y1594247D02*
X-3905639Y1594247D01*
X-3905639Y1594247D02*
X-3810401Y1546628D01*
X-3810401Y1546628D02*
X-3762782Y1499009D01*
X-3762782Y1499009D02*
X-3715163Y1403771D01*
X-3715163Y1403771D02*
X-3715163Y1118057D01*
X-3715163Y1118057D02*
X-3762782Y1022819D01*
X-3762782Y1022819D02*
X-3810401Y975200D01*
X-3810401Y975200D02*
X-3905639Y927580D01*
X-3905639Y927580D02*
X-4048496Y927580D01*
X-3286591Y927580D02*
X-3286591Y1594247D01*
X-3286591Y1927580D02*
X-3334210Y1879961D01*
X-3334210Y1879961D02*
X-3286591Y1832342D01*
X-3286591Y1832342D02*
X-3238972Y1879961D01*
X-3238972Y1879961D02*
X-3286591Y1927580D01*
X-3286591Y1927580D02*
X-3286591Y1832342D01*
X-2810401Y1594247D02*
X-2810401Y927580D01*
X-2810401Y1499009D02*
X-2762782Y1546628D01*
X-2762782Y1546628D02*
X-2667544Y1594247D01*
X-2667544Y1594247D02*
X-2524687Y1594247D01*
X-2524687Y1594247D02*
X-2429449Y1546628D01*
X-2429449Y1546628D02*
X-2381830Y1451390D01*
X-2381830Y1451390D02*
X-2381830Y927580D01*
X-1858020Y1927580D02*
X-1953258Y1737104D01*
X-238973Y1594247D02*
X-238973Y927580D01*
X-667544Y1594247D02*
X-667544Y1070438D01*
X-667544Y1070438D02*
X-619925Y975200D01*
X-619925Y975200D02*
X-524687Y927580D01*
X-524687Y927580D02*
X-381830Y927580D01*
X-381830Y927580D02*
X-286592Y975200D01*
X-286592Y975200D02*
X-238973Y1022819D01*
X237217Y927580D02*
X237217Y1594247D01*
X237217Y1403771D02*
X284836Y1499009D01*
X284836Y1499009D02*
X332455Y1546628D01*
X332455Y1546628D02*
X427693Y1594247D01*
X427693Y1594247D02*
X522931Y1594247D01*
X1618170Y927580D02*
X1618170Y1594247D01*
X1618170Y1499009D02*
X1665789Y1546628D01*
X1665789Y1546628D02*
X1761027Y1594247D01*
X1761027Y1594247D02*
X1903884Y1594247D01*
X1903884Y1594247D02*
X1999122Y1546628D01*
X1999122Y1546628D02*
X2046741Y1451390D01*
X2046741Y1451390D02*
X2046741Y927580D01*
X2046741Y1451390D02*
X2094360Y1546628D01*
X2094360Y1546628D02*
X2189598Y1594247D01*
X2189598Y1594247D02*
X2332455Y1594247D01*
X2332455Y1594247D02*
X2427694Y1546628D01*
X2427694Y1546628D02*
X2475313Y1451390D01*
X2475313Y1451390D02*
X2475313Y927580D01*
X3094360Y927580D02*
X2999122Y975200D01*
X2999122Y975200D02*
X2951503Y1022819D01*
X2951503Y1022819D02*
X2903884Y1118057D01*
X2903884Y1118057D02*
X2903884Y1403771D01*
X2903884Y1403771D02*
X2951503Y1499009D01*
X2951503Y1499009D02*
X2999122Y1546628D01*
X2999122Y1546628D02*
X3094360Y1594247D01*
X3094360Y1594247D02*
X3237217Y1594247D01*
X3237217Y1594247D02*
X3332455Y1546628D01*
X3332455Y1546628D02*
X3380074Y1499009D01*
X3380074Y1499009D02*
X3427693Y1403771D01*
X3427693Y1403771D02*
X3427693Y1118057D01*
X3427693Y1118057D02*
X3380074Y1022819D01*
X3380074Y1022819D02*
X3332455Y975200D01*
X3332455Y975200D02*
X3237217Y927580D01*
X3237217Y927580D02*
X3094360Y927580D01*
X3856265Y927580D02*
X3856265Y1594247D01*
X3856265Y1499009D02*
X3903884Y1546628D01*
X3903884Y1546628D02*
X3999122Y1594247D01*
X3999122Y1594247D02*
X4141979Y1594247D01*
X4141979Y1594247D02*
X4237217Y1546628D01*
X4237217Y1546628D02*
X4284836Y1451390D01*
X4284836Y1451390D02*
X4284836Y927580D01*
X4284836Y1451390D02*
X4332455Y1546628D01*
X4332455Y1546628D02*
X4427693Y1594247D01*
X4427693Y1594247D02*
X4570550Y1594247D01*
X4570550Y1594247D02*
X4665789Y1546628D01*
X4665789Y1546628D02*
X4713408Y1451390D01*
X4713408Y1451390D02*
X4713408Y927580D01*
X-7667544Y-1572419D02*
X-7667544Y-572419D01*
X-7667544Y-1524800D02*
X-7762782Y-1572419D01*
X-7762782Y-1572419D02*
X-7953258Y-1572419D01*
X-7953258Y-1572419D02*
X-8048496Y-1524800D01*
X-8048496Y-1524800D02*
X-8096115Y-1477180D01*
X-8096115Y-1477180D02*
X-8143734Y-1381942D01*
X-8143734Y-1381942D02*
X-8143734Y-1096228D01*
X-8143734Y-1096228D02*
X-8096115Y-1000990D01*
X-8096115Y-1000990D02*
X-8048496Y-953371D01*
X-8048496Y-953371D02*
X-7953258Y-905752D01*
X-7953258Y-905752D02*
X-7762782Y-905752D01*
X-7762782Y-905752D02*
X-7667544Y-953371D01*
X-7048496Y-1572419D02*
X-7143734Y-1524800D01*
X-7143734Y-1524800D02*
X-7191353Y-1477180D01*
X-7191353Y-1477180D02*
X-7238972Y-1381942D01*
X-7238972Y-1381942D02*
X-7238972Y-1096228D01*
X-7238972Y-1096228D02*
X-7191353Y-1000990D01*
X-7191353Y-1000990D02*
X-7143734Y-953371D01*
X-7143734Y-953371D02*
X-7048496Y-905752D01*
X-7048496Y-905752D02*
X-6905639Y-905752D01*
X-6905639Y-905752D02*
X-6810401Y-953371D01*
X-6810401Y-953371D02*
X-6762782Y-1000990D01*
X-6762782Y-1000990D02*
X-6715163Y-1096228D01*
X-6715163Y-1096228D02*
X-6715163Y-1381942D01*
X-6715163Y-1381942D02*
X-6762782Y-1477180D01*
X-6762782Y-1477180D02*
X-6810401Y-1524800D01*
X-6810401Y-1524800D02*
X-6905639Y-1572419D01*
X-6905639Y-1572419D02*
X-7048496Y-1572419D01*
X-6286591Y-1191466D02*
X-5524687Y-1191466D01*
X-4619925Y-1572419D02*
X-4619925Y-572419D01*
X-4619925Y-1524800D02*
X-4715163Y-1572419D01*
X-4715163Y-1572419D02*
X-4905639Y-1572419D01*
X-4905639Y-1572419D02*
X-5000877Y-1524800D01*
X-5000877Y-1524800D02*
X-5048496Y-1477180D01*
X-5048496Y-1477180D02*
X-5096115Y-1381942D01*
X-5096115Y-1381942D02*
X-5096115Y-1096228D01*
X-5096115Y-1096228D02*
X-5048496Y-1000990D01*
X-5048496Y-1000990D02*
X-5000877Y-953371D01*
X-5000877Y-953371D02*
X-4905639Y-905752D01*
X-4905639Y-905752D02*
X-4715163Y-905752D01*
X-4715163Y-905752D02*
X-4619925Y-953371D01*
X-4000877Y-1572419D02*
X-4096115Y-1524800D01*
X-4096115Y-1524800D02*
X-4143734Y-1477180D01*
X-4143734Y-1477180D02*
X-4191353Y-1381942D01*
X-4191353Y-1381942D02*
X-4191353Y-1096228D01*
X-4191353Y-1096228D02*
X-4143734Y-1000990D01*
X-4143734Y-1000990D02*
X-4096115Y-953371D01*
X-4096115Y-953371D02*
X-4000877Y-905752D01*
X-4000877Y-905752D02*
X-3858020Y-905752D01*
X-3858020Y-905752D02*
X-3762782Y-953371D01*
X-3762782Y-953371D02*
X-3715163Y-1000990D01*
X-3715163Y-1000990D02*
X-3667544Y-1096228D01*
X-3667544Y-1096228D02*
X-3667544Y-1381942D01*
X-3667544Y-1381942D02*
X-3715163Y-1477180D01*
X-3715163Y-1477180D02*
X-3762782Y-1524800D01*
X-3762782Y-1524800D02*
X-3858020Y-1572419D01*
X-3858020Y-1572419D02*
X-4000877Y-1572419D01*
X-3238972Y-1572419D02*
X-3238972Y-905752D01*
X-3238972Y-572419D02*
X-3286591Y-620038D01*
X-3286591Y-620038D02*
X-3238972Y-667657D01*
X-3238972Y-667657D02*
X-3191353Y-620038D01*
X-3191353Y-620038D02*
X-3238972Y-572419D01*
X-3238972Y-572419D02*
X-3238972Y-667657D01*
X-2762782Y-905752D02*
X-2762782Y-1572419D01*
X-2762782Y-1000990D02*
X-2715163Y-953371D01*
X-2715163Y-953371D02*
X-2619925Y-905752D01*
X-2619925Y-905752D02*
X-2477068Y-905752D01*
X-2477068Y-905752D02*
X-2381830Y-953371D01*
X-2381830Y-953371D02*
X-2334211Y-1048609D01*
X-2334211Y-1048609D02*
X-2334211Y-1572419D01*
X-1810401Y-572419D02*
X-1905639Y-762895D01*
X-191354Y-905752D02*
X-191354Y-1572419D01*
X-619925Y-905752D02*
X-619925Y-1429561D01*
X-619925Y-1429561D02*
X-572306Y-1524800D01*
X-572306Y-1524800D02*
X-477068Y-1572419D01*
X-477068Y-1572419D02*
X-334211Y-1572419D01*
X-334211Y-1572419D02*
X-238973Y-1524800D01*
X-238973Y-1524800D02*
X-191354Y-1477180D01*
X284836Y-1572419D02*
X284836Y-905752D01*
X284836Y-1096228D02*
X332455Y-1000990D01*
X332455Y-1000990D02*
X380074Y-953371D01*
X380074Y-953371D02*
X475312Y-905752D01*
X475312Y-905752D02*
X570550Y-905752D01*
X1665789Y-1572419D02*
X1665789Y-905752D01*
X1665789Y-1000990D02*
X1713408Y-953371D01*
X1713408Y-953371D02*
X1808646Y-905752D01*
X1808646Y-905752D02*
X1951503Y-905752D01*
X1951503Y-905752D02*
X2046741Y-953371D01*
X2046741Y-953371D02*
X2094360Y-1048609D01*
X2094360Y-1048609D02*
X2094360Y-1572419D01*
X2094360Y-1048609D02*
X2141979Y-953371D01*
X2141979Y-953371D02*
X2237217Y-905752D01*
X2237217Y-905752D02*
X2380074Y-905752D01*
X2380074Y-905752D02*
X2475313Y-953371D01*
X2475313Y-953371D02*
X2522932Y-1048609D01*
X2522932Y-1048609D02*
X2522932Y-1572419D01*
X3141979Y-1572419D02*
X3046741Y-1524800D01*
X3046741Y-1524800D02*
X2999122Y-1477180D01*
X2999122Y-1477180D02*
X2951503Y-1381942D01*
X2951503Y-1381942D02*
X2951503Y-1096228D01*
X2951503Y-1096228D02*
X2999122Y-1000990D01*
X2999122Y-1000990D02*
X3046741Y-953371D01*
X3046741Y-953371D02*
X3141979Y-905752D01*
X3141979Y-905752D02*
X3284836Y-905752D01*
X3284836Y-905752D02*
X3380074Y-953371D01*
X3380074Y-953371D02*
X3427693Y-1000990D01*
X3427693Y-1000990D02*
X3475312Y-1096228D01*
X3475312Y-1096228D02*
X3475312Y-1381942D01*
X3475312Y-1381942D02*
X3427693Y-1477180D01*
X3427693Y-1477180D02*
X3380074Y-1524800D01*
X3380074Y-1524800D02*
X3284836Y-1572419D01*
X3284836Y-1572419D02*
X3141979Y-1572419D01*
X3903884Y-1572419D02*
X3903884Y-905752D01*
X3903884Y-1000990D02*
X3951503Y-953371D01*
X3951503Y-953371D02*
X4046741Y-905752D01*
X4046741Y-905752D02*
X4189598Y-905752D01*
X4189598Y-905752D02*
X4284836Y-953371D01*
X4284836Y-953371D02*
X4332455Y-1048609D01*
X4332455Y-1048609D02*
X4332455Y-1572419D01*
X4332455Y-1048609D02*
X4380074Y-953371D01*
X4380074Y-953371D02*
X4475312Y-905752D01*
X4475312Y-905752D02*
X4618169Y-905752D01*
X4618169Y-905752D02*
X4713408Y-953371D01*
X4713408Y-953371D02*
X4761027Y-1048609D01*
X4761027Y-1048609D02*
X4761027Y-1572419D01*
X6284836Y-1905752D02*
X6046741Y-1905752D01*
X6046741Y-1905752D02*
X6046741Y-477180D01*
X6046741Y-477180D02*
X6284836Y-477180D01*
X6618170Y-1524800D02*
X6713408Y-1572419D01*
X6713408Y-1572419D02*
X6903884Y-1572419D01*
X6903884Y-1572419D02*
X6999122Y-1524800D01*
X6999122Y-1524800D02*
X7046741Y-1429561D01*
X7046741Y-1429561D02*
X7046741Y-1381942D01*
X7046741Y-1381942D02*
X6999122Y-1286704D01*
X6999122Y-1286704D02*
X6903884Y-1239085D01*
X6903884Y-1239085D02*
X6761027Y-1239085D01*
X6761027Y-1239085D02*
X6665789Y-1191466D01*
X6665789Y-1191466D02*
X6618170Y-1096228D01*
X6618170Y-1096228D02*
X6618170Y-1048609D01*
X6618170Y-1048609D02*
X6665789Y-953371D01*
X6665789Y-953371D02*
X6761027Y-905752D01*
X6761027Y-905752D02*
X6903884Y-905752D01*
X6903884Y-905752D02*
X6999122Y-953371D01*
X7475313Y-1572419D02*
X7475313Y-905752D01*
X7475313Y-572419D02*
X7427694Y-620038D01*
X7427694Y-620038D02*
X7475313Y-667657D01*
X7475313Y-667657D02*
X7522932Y-620038D01*
X7522932Y-620038D02*
X7475313Y-572419D01*
X7475313Y-572419D02*
X7475313Y-667657D01*
X8380074Y-1524800D02*
X8284836Y-1572419D01*
X8284836Y-1572419D02*
X8094360Y-1572419D01*
X8094360Y-1572419D02*
X7999122Y-1524800D01*
X7999122Y-1524800D02*
X7951503Y-1477180D01*
X7951503Y-1477180D02*
X7903884Y-1381942D01*
X7903884Y-1381942D02*
X7903884Y-1096228D01*
X7903884Y-1096228D02*
X7951503Y-1000990D01*
X7951503Y-1000990D02*
X7999122Y-953371D01*
X7999122Y-953371D02*
X8094360Y-905752D01*
X8094360Y-905752D02*
X8284836Y-905752D01*
X8284836Y-905752D02*
X8380074Y-953371D01*
X8713408Y-1905752D02*
X8951503Y-1905752D01*
X8951503Y-1905752D02*
X8951503Y-477180D01*
X8951503Y-477180D02*
X8713408Y-477180D01*
X3503884Y-41772419D02*
X3503884Y-40772419D01*
X3503884Y-40772419D02*
X3884836Y-40772419D01*
X3884836Y-40772419D02*
X3980074Y-40820038D01*
X3980074Y-40820038D02*
X4027693Y-40867657D01*
X4027693Y-40867657D02*
X4075312Y-40962895D01*
X4075312Y-40962895D02*
X4075312Y-41105752D01*
X4075312Y-41105752D02*
X4027693Y-41200990D01*
X4027693Y-41200990D02*
X3980074Y-41248609D01*
X3980074Y-41248609D02*
X3884836Y-41296228D01*
X3884836Y-41296228D02*
X3503884Y-41296228D01*
X4503884Y-41772419D02*
X4503884Y-41105752D01*
X4503884Y-41296228D02*
X4551503Y-41200990D01*
X4551503Y-41200990D02*
X4599122Y-41153371D01*
X4599122Y-41153371D02*
X4694360Y-41105752D01*
X4694360Y-41105752D02*
X4789598Y-41105752D01*
X5265789Y-41772419D02*
X5170551Y-41724800D01*
X5170551Y-41724800D02*
X5122932Y-41677180D01*
X5122932Y-41677180D02*
X5075313Y-41581942D01*
X5075313Y-41581942D02*
X5075313Y-41296228D01*
X5075313Y-41296228D02*
X5122932Y-41200990D01*
X5122932Y-41200990D02*
X5170551Y-41153371D01*
X5170551Y-41153371D02*
X5265789Y-41105752D01*
X5265789Y-41105752D02*
X5408646Y-41105752D01*
X5408646Y-41105752D02*
X5503884Y-41153371D01*
X5503884Y-41153371D02*
X5551503Y-41200990D01*
X5551503Y-41200990D02*
X5599122Y-41296228D01*
X5599122Y-41296228D02*
X5599122Y-41581942D01*
X5599122Y-41581942D02*
X5551503Y-41677180D01*
X5551503Y-41677180D02*
X5503884Y-41724800D01*
X5503884Y-41724800D02*
X5408646Y-41772419D01*
X5408646Y-41772419D02*
X5265789Y-41772419D01*
X5884837Y-41105752D02*
X6265789Y-41105752D01*
X6027694Y-40772419D02*
X6027694Y-41629561D01*
X6027694Y-41629561D02*
X6075313Y-41724800D01*
X6075313Y-41724800D02*
X6170551Y-41772419D01*
X6170551Y-41772419D02*
X6265789Y-41772419D01*
X6741980Y-41772419D02*
X6646742Y-41724800D01*
X6646742Y-41724800D02*
X6599123Y-41677180D01*
X6599123Y-41677180D02*
X6551504Y-41581942D01*
X6551504Y-41581942D02*
X6551504Y-41296228D01*
X6551504Y-41296228D02*
X6599123Y-41200990D01*
X6599123Y-41200990D02*
X6646742Y-41153371D01*
X6646742Y-41153371D02*
X6741980Y-41105752D01*
X6741980Y-41105752D02*
X6884837Y-41105752D01*
X6884837Y-41105752D02*
X6980075Y-41153371D01*
X6980075Y-41153371D02*
X7027694Y-41200990D01*
X7027694Y-41200990D02*
X7075313Y-41296228D01*
X7075313Y-41296228D02*
X7075313Y-41581942D01*
X7075313Y-41581942D02*
X7027694Y-41677180D01*
X7027694Y-41677180D02*
X6980075Y-41724800D01*
X6980075Y-41724800D02*
X6884837Y-41772419D01*
X6884837Y-41772419D02*
X6741980Y-41772419D01*
X8789599Y-41772419D02*
X8218171Y-41772419D01*
X8503885Y-41772419D02*
X8503885Y-40772419D01*
X8503885Y-40772419D02*
X8408647Y-40915276D01*
X8408647Y-40915276D02*
X8313409Y-41010514D01*
X8313409Y-41010514D02*
X8218171Y-41058133D01*
D12*
X-8892856Y37992800D02*
X-8749999Y37945180D01*
X-8749999Y37945180D02*
X-8511904Y37945180D01*
X-8511904Y37945180D02*
X-8416666Y37992800D01*
X-8416666Y37992800D02*
X-8369047Y38040419D01*
X-8369047Y38040419D02*
X-8321428Y38135657D01*
X-8321428Y38135657D02*
X-8321428Y38230895D01*
X-8321428Y38230895D02*
X-8369047Y38326133D01*
X-8369047Y38326133D02*
X-8416666Y38373752D01*
X-8416666Y38373752D02*
X-8511904Y38421371D01*
X-8511904Y38421371D02*
X-8702380Y38468990D01*
X-8702380Y38468990D02*
X-8797618Y38516609D01*
X-8797618Y38516609D02*
X-8845237Y38564228D01*
X-8845237Y38564228D02*
X-8892856Y38659466D01*
X-8892856Y38659466D02*
X-8892856Y38754704D01*
X-8892856Y38754704D02*
X-8845237Y38849942D01*
X-8845237Y38849942D02*
X-8797618Y38897561D01*
X-8797618Y38897561D02*
X-8702380Y38945180D01*
X-8702380Y38945180D02*
X-8464285Y38945180D01*
X-8464285Y38945180D02*
X-8321428Y38897561D01*
X-7988094Y38945180D02*
X-7749999Y37945180D01*
X-7749999Y37945180D02*
X-7559523Y38659466D01*
X-7559523Y38659466D02*
X-7369047Y37945180D01*
X-7369047Y37945180D02*
X-7130952Y38945180D01*
X-6988095Y37849942D02*
X-6226190Y37849942D01*
X-5654761Y38468990D02*
X-5511904Y38421371D01*
X-5511904Y38421371D02*
X-5464285Y38373752D01*
X-5464285Y38373752D02*
X-5416666Y38278514D01*
X-5416666Y38278514D02*
X-5416666Y38135657D01*
X-5416666Y38135657D02*
X-5464285Y38040419D01*
X-5464285Y38040419D02*
X-5511904Y37992800D01*
X-5511904Y37992800D02*
X-5607142Y37945180D01*
X-5607142Y37945180D02*
X-5988094Y37945180D01*
X-5988094Y37945180D02*
X-5988094Y38945180D01*
X-5988094Y38945180D02*
X-5654761Y38945180D01*
X-5654761Y38945180D02*
X-5559523Y38897561D01*
X-5559523Y38897561D02*
X-5511904Y38849942D01*
X-5511904Y38849942D02*
X-5464285Y38754704D01*
X-5464285Y38754704D02*
X-5464285Y38659466D01*
X-5464285Y38659466D02*
X-5511904Y38564228D01*
X-5511904Y38564228D02*
X-5559523Y38516609D01*
X-5559523Y38516609D02*
X-5654761Y38468990D01*
X-5654761Y38468990D02*
X-5988094Y38468990D01*
X-4797618Y38945180D02*
X-4607142Y38945180D01*
X-4607142Y38945180D02*
X-4511904Y38897561D01*
X-4511904Y38897561D02*
X-4416666Y38802323D01*
X-4416666Y38802323D02*
X-4369047Y38611847D01*
X-4369047Y38611847D02*
X-4369047Y38278514D01*
X-4369047Y38278514D02*
X-4416666Y38088038D01*
X-4416666Y38088038D02*
X-4511904Y37992800D01*
X-4511904Y37992800D02*
X-4607142Y37945180D01*
X-4607142Y37945180D02*
X-4797618Y37945180D01*
X-4797618Y37945180D02*
X-4892856Y37992800D01*
X-4892856Y37992800D02*
X-4988094Y38088038D01*
X-4988094Y38088038D02*
X-5035713Y38278514D01*
X-5035713Y38278514D02*
X-5035713Y38611847D01*
X-5035713Y38611847D02*
X-4988094Y38802323D01*
X-4988094Y38802323D02*
X-4892856Y38897561D01*
X-4892856Y38897561D02*
X-4797618Y38945180D01*
X-3749999Y38945180D02*
X-3559523Y38945180D01*
X-3559523Y38945180D02*
X-3464285Y38897561D01*
X-3464285Y38897561D02*
X-3369047Y38802323D01*
X-3369047Y38802323D02*
X-3321428Y38611847D01*
X-3321428Y38611847D02*
X-3321428Y38278514D01*
X-3321428Y38278514D02*
X-3369047Y38088038D01*
X-3369047Y38088038D02*
X-3464285Y37992800D01*
X-3464285Y37992800D02*
X-3559523Y37945180D01*
X-3559523Y37945180D02*
X-3749999Y37945180D01*
X-3749999Y37945180D02*
X-3845237Y37992800D01*
X-3845237Y37992800D02*
X-3940475Y38088038D01*
X-3940475Y38088038D02*
X-3988094Y38278514D01*
X-3988094Y38278514D02*
X-3988094Y38611847D01*
X-3988094Y38611847D02*
X-3940475Y38802323D01*
X-3940475Y38802323D02*
X-3845237Y38897561D01*
X-3845237Y38897561D02*
X-3749999Y38945180D01*
X-3035713Y38945180D02*
X-2464285Y38945180D01*
X-2749999Y37945180D02*
X-2749999Y38945180D01*
X-1607142Y37945180D02*
X-2178570Y37945180D01*
X-1892856Y37945180D02*
X-1892856Y38945180D01*
X-1892856Y38945180D02*
X-1988094Y38802323D01*
X-1988094Y38802323D02*
X-2083332Y38707085D01*
X-2083332Y38707085D02*
X-2178570Y38659466D01*
X-28176133Y-14880951D02*
X-28176133Y-14119047D01*
X-27795180Y-14499999D02*
X-28557085Y-14499999D01*
X22769048Y-14673866D02*
X23530953Y-14673866D01*
X23150000Y-15054819D02*
X23150000Y-14292914D01*
X2059524Y37992800D02*
X2202381Y37945180D01*
X2202381Y37945180D02*
X2440476Y37945180D01*
X2440476Y37945180D02*
X2535714Y37992800D01*
X2535714Y37992800D02*
X2583333Y38040419D01*
X2583333Y38040419D02*
X2630952Y38135657D01*
X2630952Y38135657D02*
X2630952Y38230895D01*
X2630952Y38230895D02*
X2583333Y38326133D01*
X2583333Y38326133D02*
X2535714Y38373752D01*
X2535714Y38373752D02*
X2440476Y38421371D01*
X2440476Y38421371D02*
X2250000Y38468990D01*
X2250000Y38468990D02*
X2154762Y38516609D01*
X2154762Y38516609D02*
X2107143Y38564228D01*
X2107143Y38564228D02*
X2059524Y38659466D01*
X2059524Y38659466D02*
X2059524Y38754704D01*
X2059524Y38754704D02*
X2107143Y38849942D01*
X2107143Y38849942D02*
X2154762Y38897561D01*
X2154762Y38897561D02*
X2250000Y38945180D01*
X2250000Y38945180D02*
X2488095Y38945180D01*
X2488095Y38945180D02*
X2630952Y38897561D01*
X2964286Y38945180D02*
X3202381Y37945180D01*
X3202381Y37945180D02*
X3392857Y38659466D01*
X3392857Y38659466D02*
X3583333Y37945180D01*
X3583333Y37945180D02*
X3821429Y38945180D01*
X3964286Y37849942D02*
X4726190Y37849942D01*
X4964286Y38468990D02*
X5297619Y38468990D01*
X5440476Y37945180D02*
X4964286Y37945180D01*
X4964286Y37945180D02*
X4964286Y38945180D01*
X4964286Y38945180D02*
X5440476Y38945180D01*
X5869048Y37945180D02*
X5869048Y38945180D01*
X5869048Y38945180D02*
X6440476Y37945180D01*
X6440476Y37945180D02*
X6440476Y38945180D01*
X7440476Y37945180D02*
X6869048Y37945180D01*
X7154762Y37945180D02*
X7154762Y38945180D01*
X7154762Y38945180D02*
X7059524Y38802323D01*
X7059524Y38802323D02*
X6964286Y38707085D01*
X6964286Y38707085D02*
X6869048Y38659466D01*
X-7276134Y-15368451D02*
X-7276134Y-14606547D01*
X-6895181Y-14987499D02*
X-7657086Y-14987499D01*
D11*
%TO.C,SW_BOOT1*%
X-7450000Y42700000D02*
X-7450000Y42580000D01*
X-7450000Y41570000D02*
X-7450000Y40430000D01*
X-7450000Y39420000D02*
X-7450000Y39300000D01*
X-7450000Y39300000D02*
X-3050000Y39300000D01*
X-3050000Y42700000D02*
X-7450000Y42700000D01*
X-3050000Y42580000D02*
X-3050000Y42700000D01*
X-3050000Y40430000D02*
X-3050000Y41570000D01*
X-3050000Y39300000D02*
X-3050000Y39420000D01*
%TO.C,Q_RLED1*%
D10*
X-19800000Y34180000D02*
X-23300000Y34180000D01*
X-23300000Y36680000D01*
X-19800000Y36680000D01*
X-19800000Y34180000D01*
D11*
%TO.C,RED_3*%
X-25666303Y38870469D02*
X-25833788Y38580376D01*
X-25088788Y39870754D02*
X-25256273Y39580661D01*
X-25076016Y38142876D02*
X-25833788Y38580376D01*
X-25046298Y38194348D02*
X-25076016Y38142876D01*
X-24331016Y39433254D02*
X-25088788Y39870754D01*
X-24331016Y39433254D02*
X-24360733Y39381782D01*
X-23694487Y39065754D02*
X-23057958Y38698254D01*
X-23057958Y38698254D02*
X-23430458Y38053065D01*
%TO.C,C2_M3*%
X-3272501Y-27952225D02*
X-3272501Y-27442777D01*
X-2227501Y-27952225D02*
X-2227501Y-27442777D01*
D12*
%TO.C,U_V8*%
X30350000Y-3490000D02*
X30350000Y-6490000D01*
X33650000Y-3750000D02*
X33650000Y-6490000D01*
D11*
X34050000Y-3430000D02*
X33570000Y-3430000D01*
X33570000Y-2950000D01*
X34050000Y-3430000D01*
G36*
X34050000Y-3430000D02*
G01*
X33570000Y-3430000D01*
X33570000Y-2950000D01*
X34050000Y-3430000D01*
G37*
%TO.C,R_RST_M3*%
X4495275Y-26877500D02*
X5004723Y-26877500D01*
X4495275Y-27922500D02*
X5004723Y-27922500D01*
%TO.C,BLUE_4*%
X22855000Y40635000D02*
X22855000Y41510000D01*
X22914435Y40635000D02*
X22855000Y40635000D01*
X23189970Y41510000D02*
X22855000Y41510000D01*
X24345000Y41510000D02*
X24010030Y41510000D01*
X24345000Y40635000D02*
X24285565Y40635000D01*
X24345000Y40635000D02*
X24345000Y41510000D01*
X24345000Y39900000D02*
X24345000Y39165000D01*
X24345000Y39165000D02*
X23600000Y39165000D01*
%TO.C,C1_EN1*%
X8515000Y41227064D02*
X8515000Y40772936D01*
X9985000Y41227064D02*
X9985000Y40772936D01*
%TO.C,R2_GLED1*%
X-24927064Y32935000D02*
X-24472936Y32935000D01*
X-24927064Y31465000D02*
X-24472936Y31465000D01*
%TO.C,R1_V5*%
X35722936Y7210000D02*
X37177064Y7210000D01*
X35722936Y5390000D02*
X37177064Y5390000D01*
D13*
%TO.C,C2_CHR_M1*%
X-34050000Y-17000000D02*
X-32450000Y-15400000D01*
X-34050000Y-22200000D02*
X-34050000Y-17000000D01*
X-34050000Y-22200000D02*
X-31750000Y-22200000D01*
X-32450000Y-15400000D02*
X-31750000Y-15400000D01*
X-28850000Y-15400000D02*
X-29550000Y-15400000D01*
X-27250000Y-17000000D02*
X-28850000Y-15400000D01*
X-27250000Y-22200000D02*
X-29550000Y-22200000D01*
X-27250000Y-22200000D02*
X-27250000Y-17000000D01*
D11*
%TO.C,C3_M1*%
X-12772500Y-26732776D02*
X-12772500Y-27242224D01*
X-11727500Y-26732776D02*
X-11727500Y-27242224D01*
%TO.C,R_USB_PUPD-1*%
X17370000Y31467621D02*
X17370000Y31132379D01*
X18130000Y31467621D02*
X18130000Y31132379D01*
%TO.C,R_SNS1_M2*%
X16817500Y-16642224D02*
X16817500Y-16132776D01*
X17862500Y-16642224D02*
X17862500Y-16132776D01*
%TO.C,GREEN_4*%
X18055000Y40635000D02*
X18055000Y41510000D01*
X18114435Y40635000D02*
X18055000Y40635000D01*
X18389970Y41510000D02*
X18055000Y41510000D01*
X19545000Y41510000D02*
X19210030Y41510000D01*
X19545000Y40635000D02*
X19485565Y40635000D01*
X19545000Y40635000D02*
X19545000Y41510000D01*
X19545000Y39900000D02*
X19545000Y39165000D01*
X19545000Y39165000D02*
X18800000Y39165000D01*
%TO.C,R_OSC_M2*%
X18585276Y-28477500D02*
X19094724Y-28477500D01*
X18585276Y-29522500D02*
X19094724Y-29522500D01*
%TO.C,Q_GLED1*%
D10*
X-19300000Y33150000D02*
X-21800000Y33150000D01*
X-21800000Y29650000D01*
X-19300000Y29650000D01*
X-19300000Y33150000D01*
D11*
%TO.C,C_MENU1*%
X-24735000Y28827064D02*
X-24735000Y28372936D01*
X-23265000Y28827064D02*
X-23265000Y28372936D01*
%TO.C,R_SNS1_M1*%
X-18972500Y-16642224D02*
X-18972500Y-16132776D01*
X-17927500Y-16642224D02*
X-17927500Y-16132776D01*
%TO.C,R_SNS2_M2*%
X13817500Y-16642224D02*
X13817500Y-16132776D01*
X14862500Y-16642224D02*
X14862500Y-16132776D01*
%TO.C,C2_V5*%
X33292415Y9572936D02*
X33292415Y10027064D01*
X34762415Y9572936D02*
X34762415Y10027064D01*
%TO.C,GREEN_5*%
X44196402Y2695209D02*
X43823902Y3340398D01*
X44724460Y4720587D02*
X45482232Y5158087D01*
X44754177Y4669115D02*
X44724460Y4720587D01*
X44832931Y3062709D02*
X44196402Y2695209D01*
X45469460Y3430209D02*
X45439742Y3481681D01*
X45469460Y3430209D02*
X46227232Y3867709D01*
X45649717Y4867994D02*
X45482232Y5158087D01*
X46227232Y3867709D02*
X46059747Y4157802D01*
%TO.C,R2_CS_M1*%
X-14885000Y-21442224D02*
X-14885000Y-20932776D01*
X-13840000Y-21442224D02*
X-13840000Y-20932776D01*
%TO.C,C1_V3*%
X32515000Y19772936D02*
X32515000Y20227064D01*
X33985000Y19772936D02*
X33985000Y20227064D01*
%TO.C,C_USB_D+1*%
X15070000Y33832379D02*
X15070000Y34167621D01*
X15830000Y33832379D02*
X15830000Y34167621D01*
%TO.C,R_USB_D+1*%
X13817621Y33680000D02*
X13482379Y33680000D01*
X13817621Y32920000D02*
X13482379Y32920000D01*
%TO.C,R1_CS_M1*%
X-13007776Y-23665000D02*
X-13517224Y-23665000D01*
X-13007776Y-24710000D02*
X-13517224Y-24710000D01*
%TO.C,R1_RLED1*%
X-17572936Y35435000D02*
X-18027064Y35435000D01*
X-17572936Y33965000D02*
X-18027064Y33965000D01*
%TO.C,C1_CHR_M1*%
X-25572500Y-28154724D02*
X-25572500Y-27645276D01*
X-24527500Y-28154724D02*
X-24527500Y-27645276D01*
%TO.C,BLUE_1*%
X-24345000Y-39365000D02*
X-23600000Y-39365000D01*
X-24345000Y-40100000D02*
X-24345000Y-39365000D01*
X-24345000Y-40835000D02*
X-24345000Y-41710000D01*
X-24345000Y-40835000D02*
X-24285565Y-40835000D01*
X-24345000Y-41710000D02*
X-24010030Y-41710000D01*
X-23189970Y-41710000D02*
X-22855000Y-41710000D01*
X-22914435Y-40835000D02*
X-22855000Y-40835000D01*
X-22855000Y-40835000D02*
X-22855000Y-41710000D01*
%TO.C,R_EN_M1*%
X-25632500Y-19745276D02*
X-25632500Y-20254724D01*
X-24587500Y-19745276D02*
X-24587500Y-20254724D01*
%TO.C,R3_V8*%
X25872936Y-3080000D02*
X27327064Y-3080000D01*
X25872936Y-4900000D02*
X27327064Y-4900000D01*
%TO.C,C1_V5*%
X41822936Y9235000D02*
X42277064Y9235000D01*
X41822936Y7765000D02*
X42277064Y7765000D01*
D13*
%TO.C,C2_CHR_M2*%
X24050000Y-15200000D02*
X24050000Y-15900000D01*
X24050000Y-18800000D02*
X24050000Y-18100000D01*
X25650000Y-13600000D02*
X24050000Y-15200000D01*
X25650000Y-20400000D02*
X24050000Y-18800000D01*
X30850000Y-13600000D02*
X25650000Y-13600000D01*
X30850000Y-13600000D02*
X30850000Y-15900000D01*
X30850000Y-20400000D02*
X25650000Y-20400000D01*
X30850000Y-20400000D02*
X30850000Y-18100000D01*
D11*
%TO.C,SW_EN1*%
X2550000Y42700000D02*
X2550000Y42580000D01*
X2550000Y41570000D02*
X2550000Y40430000D01*
X2550000Y39420000D02*
X2550000Y39300000D01*
X2550000Y39300000D02*
X6950000Y39300000D01*
X6950000Y42700000D02*
X2550000Y42700000D01*
X6950000Y42580000D02*
X6950000Y42700000D01*
X6950000Y40430000D02*
X6950000Y41570000D01*
X6950000Y39300000D02*
X6950000Y39420000D01*
%TO.C,R_M3*%
X5004723Y-25277500D02*
X4495275Y-25277500D01*
X5004723Y-26322500D02*
X4495275Y-26322500D01*
%TO.C,R_RST_M2*%
X20507776Y-26877500D02*
X21017224Y-26877500D01*
X20507776Y-27922500D02*
X21017224Y-27922500D01*
%TO.C,GREEN_2*%
X-45833788Y-3866733D02*
X-45666303Y-4156826D01*
X-45256273Y-4867018D02*
X-45088788Y-5157111D01*
X-45076016Y-3429233D02*
X-45833788Y-3866733D01*
X-45076016Y-3429233D02*
X-45046298Y-3480705D01*
X-44439487Y-3061733D02*
X-43802958Y-2694233D01*
X-44360733Y-4668139D02*
X-44331016Y-4719611D01*
X-44331016Y-4719611D02*
X-45088788Y-5157111D01*
X-43802958Y-2694233D02*
X-43430458Y-3339422D01*
%TO.C,SW_MENU1*%
X-28730000Y26280000D02*
X-28730000Y26250000D01*
X-28730000Y21750000D02*
X-28730000Y24350000D01*
X-28730000Y19820000D02*
X-28730000Y19850000D01*
X-22270000Y26280000D02*
X-28730000Y26280000D01*
X-22270000Y26280000D02*
X-22270000Y26250000D01*
X-22270000Y21750000D02*
X-22270000Y24350000D01*
X-22270000Y19850000D02*
X-22270000Y19820000D01*
X-22270000Y19820000D02*
X-28730000Y19820000D01*
%TO.C,C1_CHR_M2*%
X10317500Y-28054724D02*
X10317500Y-27545276D01*
X11362500Y-28054724D02*
X11362500Y-27545276D01*
%TO.C,R2_V3*%
X31840000Y15527064D02*
X31840000Y14072936D01*
X33660000Y15527064D02*
X33660000Y14072936D01*
%TO.C,RED_6*%
X23124946Y-38699228D02*
X23497446Y-38054039D01*
X23761475Y-39066728D02*
X23124946Y-38699228D01*
X24398004Y-39434228D02*
X24427721Y-39382756D01*
X24398004Y-39434228D02*
X25155776Y-39871728D01*
X25113286Y-38195322D02*
X25143004Y-38143850D01*
X25143004Y-38143850D02*
X25900776Y-38581350D01*
X25155776Y-39871728D02*
X25323261Y-39581635D01*
X25733291Y-38871443D02*
X25900776Y-38581350D01*
%TO.C,R_SNS2_M3*%
X-1772501Y-16842225D02*
X-1772501Y-16332777D01*
X-727501Y-16842225D02*
X-727501Y-16332777D01*
%TO.C,C2_V3*%
X24315000Y14227064D02*
X24315000Y13772936D01*
X25785000Y14227064D02*
X25785000Y13772936D01*
%TO.C,C_BOOT1*%
X-13135000Y35272936D02*
X-13135000Y35727064D01*
X-11665000Y35272936D02*
X-11665000Y35727064D01*
%TO.C,GREEN_3*%
X-26866303Y36792008D02*
X-27033788Y36501915D01*
X-26288788Y37792293D02*
X-26456273Y37502200D01*
X-26276016Y36064415D02*
X-27033788Y36501915D01*
X-26246298Y36115887D02*
X-26276016Y36064415D01*
X-25531016Y37354793D02*
X-26288788Y37792293D01*
X-25531016Y37354793D02*
X-25560733Y37303321D01*
X-24894487Y36987293D02*
X-24257958Y36619793D01*
X-24257958Y36619793D02*
X-24630458Y35974604D01*
%TO.C,RED_1*%
X-21945000Y-39365000D02*
X-21200000Y-39365000D01*
X-21945000Y-40100000D02*
X-21945000Y-39365000D01*
X-21945000Y-40835000D02*
X-21945000Y-41710000D01*
X-21945000Y-40835000D02*
X-21885565Y-40835000D01*
X-21945000Y-41710000D02*
X-21610030Y-41710000D01*
X-20789970Y-41710000D02*
X-20455000Y-41710000D01*
X-20514435Y-40835000D02*
X-20455000Y-40835000D01*
X-20455000Y-40835000D02*
X-20455000Y-41710000D01*
%TO.C,R2_BLED1*%
X-13172936Y40335000D02*
X-13627064Y40335000D01*
X-13172936Y38865000D02*
X-13627064Y38865000D01*
%TO.C,U3*%
X-8120200Y36422000D02*
X-7120200Y36422000D01*
X-8120200Y35647000D02*
X-8120200Y36422000D01*
X8829800Y15222000D02*
X9879800Y15222000D01*
X9879800Y36422000D02*
X8879800Y36422000D01*
X9879800Y35672000D02*
X9879800Y36422000D01*
X9879800Y15222000D02*
X9879800Y15972000D01*
%TO.C,R_EN_M2*%
X10327500Y-19532776D02*
X10327500Y-20042224D01*
X11372500Y-19532776D02*
X11372500Y-20042224D01*
%TO.C,R_M2*%
X21017224Y-25277500D02*
X20507776Y-25277500D01*
X21017224Y-26322500D02*
X20507776Y-26322500D01*
%TO.C,C2_EN1*%
X18515000Y20772936D02*
X18515000Y21227064D01*
X19985000Y20772936D02*
X19985000Y21227064D01*
%TO.C,R_USB_PUPD+1*%
X17370000Y34032379D02*
X17370000Y34367621D01*
X18130000Y34032379D02*
X18130000Y34367621D01*
D14*
%TO.C,U6*%
X-2250001Y-20641050D02*
X-2250001Y-21037500D01*
X-2250001Y-24537500D02*
X-2250001Y-25287500D01*
X-2250001Y-25287500D02*
X-1500001Y-25287500D01*
X-1896451Y-20287500D02*
X-2250001Y-20641050D01*
X-1500001Y-20287500D02*
X-1896451Y-20287500D01*
X1999999Y-20287500D02*
X2749999Y-20287500D01*
X1999999Y-25287500D02*
X2749999Y-25287500D01*
X2749999Y-20287500D02*
X2749999Y-21037500D01*
X2749999Y-25287500D02*
X2749999Y-24537500D01*
X-2500001Y-20537500D02*
G75*
G02*
X-3000001Y-20537500I-250000J0D01*
G01*
X-3000001Y-20537500D02*
G75*
G02*
X-2500001Y-20537500I250000J0D01*
G01*
D11*
%TO.C,R_EN_M3*%
X-5272500Y-19932776D02*
X-5272500Y-20442224D01*
X-4227500Y-19932776D02*
X-4227500Y-20442224D01*
%TO.C,C1_M3*%
X-5272501Y-23864725D02*
X-5272501Y-23355277D01*
X-4227501Y-23864725D02*
X-4227501Y-23355277D01*
%TO.C,R2_V5*%
X34954479Y4710000D02*
X33500351Y4710000D01*
X34954479Y2890000D02*
X33500351Y2890000D01*
%TO.C,C2_DC3*%
X13515000Y17164564D02*
X13515000Y16710436D01*
X14985000Y17164564D02*
X14985000Y16710436D01*
%TO.C,RED_4*%
X20455000Y40635000D02*
X20455000Y41510000D01*
X20514435Y40635000D02*
X20455000Y40635000D01*
X20789970Y41510000D02*
X20455000Y41510000D01*
X21945000Y41510000D02*
X21610030Y41510000D01*
X21945000Y40635000D02*
X21885565Y40635000D01*
X21945000Y40635000D02*
X21945000Y41510000D01*
X21945000Y39900000D02*
X21945000Y39165000D01*
X21945000Y39165000D02*
X21200000Y39165000D01*
%TO.C,C_LIM1*%
X16215000Y15327064D02*
X16215000Y14872936D01*
X17685000Y15327064D02*
X17685000Y14872936D01*
%TO.C,GREEN_6*%
X24324946Y-36620767D02*
X24697446Y-35975578D01*
X24961475Y-36988267D02*
X24324946Y-36620767D01*
X25598004Y-37355767D02*
X25627721Y-37304295D01*
X25598004Y-37355767D02*
X26355776Y-37793267D01*
X26313286Y-36116861D02*
X26343004Y-36065389D01*
X26343004Y-36065389D02*
X27100776Y-36502889D01*
X26355776Y-37793267D02*
X26523261Y-37503174D01*
X26933291Y-36792982D02*
X27100776Y-36502889D01*
%TO.C,R1_BLED1*%
X-15335000Y35272936D02*
X-15335000Y35727064D01*
X-13865000Y35272936D02*
X-13865000Y35727064D01*
%TO.C,BLUE_2*%
X-48233788Y290189D02*
X-48066303Y96D01*
X-47656273Y-710096D02*
X-47488788Y-1000189D01*
X-47476016Y727689D02*
X-48233788Y290189D01*
X-47476016Y727689D02*
X-47446298Y676217D01*
X-46839487Y1095189D02*
X-46202958Y1462689D01*
X-46760733Y-511217D02*
X-46731016Y-562689D01*
X-46731016Y-562689D02*
X-47488788Y-1000189D01*
X-46202958Y1462689D02*
X-45830458Y817500D01*
D13*
%TO.C,C2_CHR_M3*%
X-13150001Y-17487500D02*
X-11550001Y-15887500D01*
X-13150001Y-22687500D02*
X-13150001Y-17487500D01*
X-13150001Y-22687500D02*
X-10850001Y-22687500D01*
X-11550001Y-15887500D02*
X-10850001Y-15887500D01*
X-7950001Y-15887500D02*
X-8650001Y-15887500D01*
X-6350001Y-17487500D02*
X-7950001Y-15887500D01*
X-6350001Y-22687500D02*
X-8650001Y-22687500D01*
X-6350001Y-22687500D02*
X-6350001Y-17487500D01*
D11*
%TO.C,R2_LIM1*%
X18440000Y11627064D02*
X18440000Y10172936D01*
X20260000Y11627064D02*
X20260000Y10172936D01*
%TO.C,R1_V8*%
X28947936Y520000D02*
X30402064Y520000D01*
X28947936Y-1300000D02*
X30402064Y-1300000D01*
%TO.C,R_OSC_M3*%
X2445276Y-28477500D02*
X2954724Y-28477500D01*
X2445276Y-29522500D02*
X2954724Y-29522500D01*
%TO.C,C3_M2*%
X24195276Y-24277499D02*
X24704724Y-24277499D01*
X24195276Y-25322499D02*
X24704724Y-25322499D01*
D15*
%TO.C,D_LIM1*%
X17700000Y11500000D02*
X16200000Y11500000D01*
D11*
%TO.C,C1_M1*%
X-25632500Y-23667224D02*
X-25632500Y-23157776D01*
X-24587500Y-23667224D02*
X-24587500Y-23157776D01*
%TO.C,R_SNS1_M3*%
X1227500Y-16842224D02*
X1227500Y-16332776D01*
X2272500Y-16842224D02*
X2272500Y-16332776D01*
%TO.C,GREEN_1*%
X-19545000Y-39365000D02*
X-18800000Y-39365000D01*
X-19545000Y-40100000D02*
X-19545000Y-39365000D01*
X-19545000Y-40835000D02*
X-19545000Y-41710000D01*
X-19545000Y-40835000D02*
X-19485565Y-40835000D01*
X-19545000Y-41710000D02*
X-19210030Y-41710000D01*
X-18389970Y-41710000D02*
X-18055000Y-41710000D01*
X-18114435Y-40835000D02*
X-18055000Y-40835000D01*
X-18055000Y-40835000D02*
X-18055000Y-41710000D01*
D10*
%TO.C,L_V8*%
X43200000Y-4500000D02*
G75*
G02*
X35800000Y-4500000I-3700000J0D01*
G01*
X35800000Y-4500000D02*
G75*
G02*
X43200000Y-4500000I3700000J0D01*
G01*
D14*
%TO.C,U8*%
X-22450000Y-20353550D02*
X-22450000Y-20750000D01*
X-22450000Y-24250000D02*
X-22450000Y-25000000D01*
X-22450000Y-25000000D02*
X-21700000Y-25000000D01*
X-22096450Y-20000000D02*
X-22450000Y-20353550D01*
X-21700000Y-20000000D02*
X-22096450Y-20000000D01*
X-18200000Y-20000000D02*
X-17450000Y-20000000D01*
X-18200000Y-25000000D02*
X-17450000Y-25000000D01*
X-17450000Y-20000000D02*
X-17450000Y-20750000D01*
X-17450000Y-25000000D02*
X-17450000Y-24250000D01*
X-22700000Y-20250000D02*
G75*
G02*
X-23200000Y-20250000I-250000J0D01*
G01*
X-23200000Y-20250000D02*
G75*
G02*
X-22700000Y-20250000I250000J0D01*
G01*
%TO.C,D_8V2*%
X30325000Y9180000D02*
X30325000Y6420000D01*
X32275000Y9180000D02*
X32275000Y6420000D01*
D13*
X31400000Y10405000D02*
G75*
G02*
X31200000Y10405000I-100000J0D01*
G01*
X31200000Y10405000D02*
G75*
G02*
X31400000Y10405000I100000J0D01*
G01*
D11*
%TO.C,C2_M2*%
X12517500Y-27554724D02*
X12517500Y-27045276D01*
X13562500Y-27554724D02*
X13562500Y-27045276D01*
%TO.C,R2_CS_M3*%
X5227499Y-20542225D02*
X5227499Y-20032777D01*
X6272499Y-20542225D02*
X6272499Y-20032777D01*
D10*
%TO.C,J2*%
X-41650000Y5400000D02*
X-36900000Y10150000D01*
X-41650000Y-5200000D02*
X-41650000Y5400000D01*
X-40450000Y5100000D02*
X-40450000Y-4900000D01*
X-36900000Y-9950000D02*
X-41650000Y-5200000D01*
X-36650000Y-8750000D02*
X-40450000Y-4900000D01*
X-36600000Y8900000D02*
X-40450000Y5100000D01*
X-36600000Y8900000D02*
X-26600000Y8950000D01*
X-26600000Y8950000D02*
X-22750000Y5100000D01*
X-26600000Y-8750000D02*
X-36650000Y-8750000D01*
X-26300000Y10150000D02*
X-36900000Y10150000D01*
X-26300000Y10150000D02*
X-21550000Y5400000D01*
X-26300000Y-9950000D02*
X-36900000Y-9950000D01*
X-22750000Y5100000D02*
X-22750000Y-4900000D01*
X-22750000Y-4900000D02*
X-26600000Y-8750000D01*
X-21550000Y-5200000D02*
X-26300000Y-9950000D01*
X-21550000Y-5200000D02*
X-21550000Y5400000D01*
D11*
%TO.C,R2_EN1*%
X21015000Y19227064D02*
X21015000Y18772936D01*
X22485000Y19227064D02*
X22485000Y18772936D01*
%TO.C,R_M1*%
X-14607776Y-25665000D02*
X-15117224Y-25665000D01*
X-14607776Y-26710000D02*
X-15117224Y-26710000D01*
%TO.C,R1_EN1*%
X12022936Y42735000D02*
X12477064Y42735000D01*
X12022936Y41265000D02*
X12477064Y41265000D01*
%TO.C,L_V3*%
X28250000Y23200000D02*
X31250000Y23200000D01*
X28250000Y19800000D02*
X31250000Y19800000D01*
D14*
%TO.C,D_8V1*%
X31357500Y-9915000D02*
X34117500Y-9915000D01*
X31357500Y-11865000D02*
X34117500Y-11865000D01*
D13*
X30232500Y-10890000D02*
G75*
G02*
X30032500Y-10890000I-100000J0D01*
G01*
X30032500Y-10890000D02*
G75*
G02*
X30232500Y-10890000I100000J0D01*
G01*
D11*
%TO.C,R1_CS_M2*%
X22517224Y-22377500D02*
X22007776Y-22377500D01*
X22517224Y-23422500D02*
X22007776Y-23422500D01*
D14*
%TO.C,U5*%
X13350000Y-20253550D02*
X13350000Y-20650000D01*
X13350000Y-24150000D02*
X13350000Y-24900000D01*
X13350000Y-24900000D02*
X14100000Y-24900000D01*
X13703550Y-19900000D02*
X13350000Y-20253550D01*
X14100000Y-19900000D02*
X13703550Y-19900000D01*
X17600000Y-19900000D02*
X18350000Y-19900000D01*
X17600000Y-24900000D02*
X18350000Y-24900000D01*
X18350000Y-19900000D02*
X18350000Y-20650000D01*
X18350000Y-24900000D02*
X18350000Y-24150000D01*
X13100000Y-20150000D02*
G75*
G02*
X12600000Y-20150000I-250000J0D01*
G01*
X12600000Y-20150000D02*
G75*
G02*
X13100000Y-20150000I250000J0D01*
G01*
D11*
%TO.C,C2_V8*%
X30370000Y-8132379D02*
X30370000Y-8467621D01*
X31130000Y-8132379D02*
X31130000Y-8467621D01*
%TO.C,R2_RLED1*%
X-20735000Y40427064D02*
X-20735000Y39972936D01*
X-19265000Y40427064D02*
X-19265000Y39972936D01*
%TO.C,C1_M2*%
X10317500Y-23454724D02*
X10317500Y-22945276D01*
X11362500Y-23454724D02*
X11362500Y-22945276D01*
%TO.C,C1_CHR_M3*%
X-5272501Y-28452225D02*
X-5272501Y-27942777D01*
X-4227501Y-28452225D02*
X-4227501Y-27942777D01*
%TO.C,R_RST_M1*%
X-15117224Y-27265000D02*
X-14607776Y-27265000D01*
X-15117224Y-28310000D02*
X-14607776Y-28310000D01*
%TO.C,C3_M3*%
X7227499Y-26442777D02*
X7227499Y-26952225D01*
X8272499Y-26442777D02*
X8272499Y-26952225D01*
%TO.C,C2_M1*%
X-23472500Y-27754724D02*
X-23472500Y-27245276D01*
X-22427500Y-27754724D02*
X-22427500Y-27245276D01*
%TO.C,C3_V8*%
X20815000Y-12927064D02*
X20815000Y-12472936D01*
X22285000Y-12927064D02*
X22285000Y-12472936D01*
%TO.C,R1_CS_M3*%
X7004724Y-22765001D02*
X6495276Y-22765001D01*
X7004724Y-23810001D02*
X6495276Y-23810001D01*
%TO.C,Q_BLED1*%
D10*
X-15800000Y39750000D02*
X-18300000Y39750000D01*
X-18300000Y36250000D01*
X-15800000Y36250000D01*
X-15800000Y39750000D01*
D11*
%TO.C,RED_2*%
X-47033788Y-1788272D02*
X-46866303Y-2078365D01*
X-46456273Y-2788557D02*
X-46288788Y-3078650D01*
X-46276016Y-1350772D02*
X-47033788Y-1788272D01*
X-46276016Y-1350772D02*
X-46246298Y-1402244D01*
X-45639487Y-983272D02*
X-45002958Y-615772D01*
X-45560733Y-2589678D02*
X-45531016Y-2641150D01*
X-45531016Y-2641150D02*
X-46288788Y-3078650D01*
X-45002958Y-615772D02*
X-44630458Y-1260961D01*
%TO.C,R_USB_D-1*%
X13482379Y32580000D02*
X13817621Y32580000D01*
X13482379Y31820000D02*
X13817621Y31820000D01*
%TO.C,R1_GLED1*%
X-11472936Y28235000D02*
X-11927064Y28235000D01*
X-11472936Y26765000D02*
X-11927064Y26765000D01*
%TO.C,R_MENU1*%
X-27135000Y28372936D02*
X-27135000Y28827064D01*
X-25665000Y28372936D02*
X-25665000Y28827064D01*
%TO.C,BLUE_3*%
X-24466303Y40948930D02*
X-24633788Y40658837D01*
X-23888788Y41949215D02*
X-24056273Y41659122D01*
X-23876016Y40221337D02*
X-24633788Y40658837D01*
X-23846298Y40272809D02*
X-23876016Y40221337D01*
X-23131016Y41511715D02*
X-23888788Y41949215D01*
X-23131016Y41511715D02*
X-23160733Y41460243D01*
X-22494487Y41144215D02*
X-21857958Y40776715D01*
X-21857958Y40776715D02*
X-22230458Y40131526D01*
%TO.C,BLUE_6*%
X21924946Y-40777689D02*
X22297446Y-40132500D01*
X22561475Y-41145189D02*
X21924946Y-40777689D01*
X23198004Y-41512689D02*
X23227721Y-41461217D01*
X23198004Y-41512689D02*
X23955776Y-41950189D01*
X23913286Y-40273783D02*
X23943004Y-40222311D01*
X23943004Y-40222311D02*
X24700776Y-40659811D01*
X23955776Y-41950189D02*
X24123261Y-41660096D01*
X24533291Y-40949904D02*
X24700776Y-40659811D01*
%TO.C,BLUE_5*%
X46596402Y-1461713D02*
X46223902Y-816524D01*
X47124460Y563665D02*
X47882232Y1001165D01*
X47154177Y512193D02*
X47124460Y563665D01*
X47232931Y-1094213D02*
X46596402Y-1461713D01*
X47869460Y-726713D02*
X47839742Y-675241D01*
X47869460Y-726713D02*
X48627232Y-289213D01*
X48049717Y711072D02*
X47882232Y1001165D01*
X48627232Y-289213D02*
X48459747Y880D01*
%TO.C,R_OSC_M1*%
X-18654724Y-28577500D02*
X-18145276Y-28577500D01*
X-18654724Y-29622500D02*
X-18145276Y-29622500D01*
%TO.C,L_V5*%
X35900000Y13900000D02*
X38900000Y13900000D01*
X35900000Y10500000D02*
X38900000Y10500000D01*
%TO.C,R_SNS2_M1*%
X-22072500Y-16654724D02*
X-22072500Y-16145276D01*
X-21027500Y-16654724D02*
X-21027500Y-16145276D01*
%TO.C,R_BOOT1*%
X-10985000Y35727064D02*
X-10985000Y35272936D01*
X-9515000Y35727064D02*
X-9515000Y35272936D01*
%TO.C,R2_V8*%
X27640000Y-10827064D02*
X27640000Y-9372936D01*
X29460000Y-10827064D02*
X29460000Y-9372936D01*
%TO.C,R1_LIM1*%
X18440000Y16927064D02*
X18440000Y15472936D01*
X20260000Y16927064D02*
X20260000Y15472936D01*
%TO.C,C1_V8*%
X32465000Y-862936D02*
X32465000Y-1317064D01*
X33935000Y-862936D02*
X33935000Y-1317064D01*
%TO.C,D1*%
X19170000Y34367621D02*
X19170000Y34032379D01*
X19930000Y34367621D02*
X19930000Y34032379D01*
%TO.C,R2_CS_M2*%
X22007776Y-20677500D02*
X22517224Y-20677500D01*
X22007776Y-21722500D02*
X22517224Y-21722500D01*
%TO.C,C_USB_D-1*%
X15070000Y31667621D02*
X15070000Y31332379D01*
X15830000Y31667621D02*
X15830000Y31332379D01*
%TO.C,R1_V3*%
X28022936Y16410000D02*
X29477064Y16410000D01*
X28022936Y14590000D02*
X29477064Y14590000D01*
%TO.C,RED_5*%
X45396402Y616748D02*
X45023902Y1261937D01*
X45924460Y2642126D02*
X46682232Y3079626D01*
X45954177Y2590654D02*
X45924460Y2642126D01*
X46032931Y984248D02*
X45396402Y616748D01*
X46669460Y1351748D02*
X46639742Y1403220D01*
X46669460Y1351748D02*
X47427232Y1789248D01*
X46849717Y2789533D02*
X46682232Y3079626D01*
X47427232Y1789248D02*
X47259747Y2079341D01*
%TO.C,D2*%
X19170000Y31132379D02*
X19170000Y31467621D01*
X19930000Y31132379D02*
X19930000Y31467621D01*
%TO.C,U4*%
D10*
X21300000Y-42670000D02*
X-16700000Y-42670000D01*
X-16700000Y-30720000D01*
X21300000Y-30720000D01*
X21300000Y-42670000D01*
D11*
%TO.C,C1_DC3*%
X11515000Y17164564D02*
X11515000Y16710436D01*
X12985000Y17164564D02*
X12985000Y16710436D01*
%TD*%
M02*
