%TF.GenerationSoftware,KiCad,Pcbnew,9.0.2+dfsg-1*%
%TF.CreationDate,2026-04-22T21:52:17-05:00*%
%TF.ProjectId,defcon_badge_main,64656663-6f6e-45f6-9261-6467655f6d61,rev?*%
%TF.SameCoordinates,Original*%
%TF.FileFunction,Soldermask,Bot*%
%TF.FilePolarity,Negative*%
%FSLAX46Y46*%
G04 Gerber Fmt 4.6, Leading zero omitted, Abs format (unit mm)*
G04 Created by KiCad (PCBNEW 9.0.2+dfsg-1) date 2026-04-22 21:52:17*
%MOMM*%
%LPD*%
G01*
G04 APERTURE LIST*
G04 Aperture macros list*
%AMRotRect*
0 Rectangle, with rotation*
0 The origin of the aperture is its center*
0 $1 length*
0 $2 width*
0 $3 Rotation angle, in degrees counterclockwise*
0 Add horizontal line*
21,1,$1,$2,0,0,$3*%
G04 Aperture macros list end*
%ADD10C,2.000000*%
%ADD11RotRect,0.850000X0.850000X240.000000*%
%ADD12C,0.850000*%
%ADD13R,0.850000X0.850000*%
%ADD14RotRect,0.850000X0.850000X120.000000*%
%ADD15RotRect,0.850000X0.850000X300.000000*%
%ADD16RotRect,0.850000X0.850000X60.000000*%
%ADD17C,0.600000*%
%ADD18C,1.600000*%
%ADD19C,1.800000*%
%ADD20O,2.274000X4.344000*%
G04 APERTURE END LIST*
D10*
%TO.C,REF\u002A\u002A*%
X-10500000Y7300000D03*
X-15100000Y4700000D03*
X-15100000Y9800000D03*
%TD*%
D11*
%TO.C,RED_3*%
X-24066987Y38420565D03*
D12*
X-24933012Y38920565D03*
%TD*%
D13*
%TO.C,BLUE_4*%
X23600000Y39900000D03*
D12*
X23600000Y40900000D03*
%TD*%
D13*
%TO.C,GREEN_4*%
X18800000Y39900000D03*
D12*
X18800000Y40900000D03*
%TD*%
D14*
%TO.C,GREEN_5*%
X44460431Y3707898D03*
D12*
X45326456Y4207898D03*
%TD*%
D13*
%TO.C,BLUE_1*%
X-23600000Y-40100000D03*
D12*
X-23600000Y-41100000D03*
%TD*%
D15*
%TO.C,GREEN_2*%
X-44066987Y-3706922D03*
D12*
X-44933012Y-4206922D03*
%TD*%
D16*
%TO.C,RED_6*%
X24133975Y-38421539D03*
D12*
X25000000Y-38921539D03*
%TD*%
D11*
%TO.C,GREEN_3*%
X-25266987Y36342104D03*
D12*
X-26133012Y36842104D03*
%TD*%
D13*
%TO.C,RED_1*%
X-21200000Y-40100000D03*
D12*
X-21200000Y-41100000D03*
%TD*%
D17*
%TO.C,U6*%
X-750001Y-21787500D03*
X-750001Y-22787500D03*
X-750001Y-23787500D03*
X249999Y-21787500D03*
X249999Y-22787500D03*
X249999Y-23787500D03*
X1249999Y-21787500D03*
X1249999Y-22787500D03*
X1249999Y-23787500D03*
%TD*%
D13*
%TO.C,RED_4*%
X21200000Y39900000D03*
D12*
X21200000Y40900000D03*
%TD*%
D16*
%TO.C,GREEN_6*%
X25333975Y-36343078D03*
D12*
X26200000Y-36843078D03*
%TD*%
D15*
%TO.C,BLUE_2*%
X-46466987Y450000D03*
D12*
X-47333012Y-50000D03*
%TD*%
D13*
%TO.C,GREEN_1*%
X-18800000Y-40100000D03*
D12*
X-18800000Y-41100000D03*
%TD*%
D17*
%TO.C,U8*%
X-20950000Y-21500000D03*
X-20950000Y-22500000D03*
X-20950000Y-23500000D03*
X-19950000Y-21500000D03*
X-19950000Y-22500000D03*
X-19950000Y-23500000D03*
X-18950000Y-21500000D03*
X-18950000Y-22500000D03*
X-18950000Y-23500000D03*
%TD*%
D18*
%TO.C,J2*%
X-33600000Y12550000D03*
X-19150000Y-1900000D03*
X-29600000Y12550000D03*
X-19150000Y2100000D03*
X-31600000Y12550000D03*
X-19150000Y100000D03*
%TD*%
D17*
%TO.C,U5*%
X14850000Y-21400000D03*
X14850000Y-22400000D03*
X14850000Y-23400000D03*
X15850000Y-21400000D03*
X15850000Y-22400000D03*
X15850000Y-23400000D03*
X16850000Y-21400000D03*
X16850000Y-22400000D03*
X16850000Y-23400000D03*
%TD*%
D15*
%TO.C,RED_2*%
X-45266987Y-1628461D03*
D12*
X-46133012Y-2128461D03*
%TD*%
D11*
%TO.C,BLUE_3*%
X-22866987Y40499026D03*
D12*
X-23733012Y40999026D03*
%TD*%
D16*
%TO.C,BLUE_6*%
X22933975Y-40500000D03*
D12*
X23800000Y-41000000D03*
%TD*%
D14*
%TO.C,BLUE_5*%
X46860431Y-449024D03*
D12*
X47726456Y50976D03*
%TD*%
D14*
%TO.C,RED_5*%
X45660431Y1629437D03*
D12*
X46526456Y2129437D03*
%TD*%
D19*
%TO.C,U4*%
X19800000Y-40480000D03*
X19800000Y-37940000D03*
X19800000Y-35400000D03*
X19800000Y-32860000D03*
%TD*%
D20*
%TO.C,BT2*%
X35600000Y100000D03*
X-37300000Y100000D03*
%TD*%
M02*
