M48
; DRILL file {KiCad 9.0.2+dfsg-1} date 2026-04-22T21:52:24-0500
; FORMAT={-:-/ absolute / metric / decimal}
; #@! TF.CreationDate,2026-04-22T21:52:24-05:00
; #@! TF.GenerationSoftware,Kicad,Pcbnew,9.0.2+dfsg-1
; #@! TF.FileFunction,Plated,1,4,PTH
FMAT,2
METRIC
; #@! TA.AperFunction,Plated,PTH,ViaDrill
T1C0.300
; #@! TA.AperFunction,Plated,PTH,ComponentDrill
T2C0.300
; #@! TA.AperFunction,Plated,PTH,ComponentDrill
T3C0.500
; #@! TA.AperFunction,Plated,PTH,ComponentDrill
T4C0.800
; #@! TA.AperFunction,Plated,PTH,ComponentDrill
T5C1.000
; #@! TA.AperFunction,Plated,PTH,ComponentDrill
T6C1.380
%
G90
G05
T1
X-50.315Y-0.075
X-49.47Y-1.276
X-49.44Y1.441
X-48.47Y-3.008
X-48.44Y3.173
X-47.47Y-4.74
X-47.44Y4.905
X-46.47Y-6.472
X-46.44Y6.637
X-45.47Y-8.204
X-45.44Y8.369
X-44.47Y-9.936
X-44.44Y10.101
X-43.47Y-11.668
X-43.44Y11.833
X-42.47Y-13.4
X-42.44Y13.565
X-42.0Y7.0
X-41.5Y-6.5
X-41.47Y-15.132
X-41.44Y15.297
X-41.2Y0.7
X-41.05Y5.85
X-40.5Y9.5
X-40.47Y-16.864
X-40.44Y17.029
X-40.0Y-9.0
X-39.5Y0.8
X-39.47Y-18.596
X-39.44Y18.761
X-38.55Y-11.35
X-38.47Y-20.328
X-38.44Y20.493
X-38.4Y-16.0
X-37.8Y-17.0
X-37.47Y-22.061
X-37.45Y6.85
X-37.44Y22.225
X-37.1Y-17.9
X-37.0Y15.5
X-36.47Y-23.793
X-36.44Y23.957
X-35.5Y18.0
X-35.47Y-25.525
X-35.44Y25.689
X-34.47Y-27.257
X-34.44Y27.422
X-33.9Y3.1
X-33.47Y-28.989
X-33.44Y29.154
X-33.0Y5.0
X-32.47Y-30.721
X-32.44Y30.886
X-32.0Y24.0
X-32.0Y1.5
X-32.0Y-2.0
X-32.0Y-5.0
X-32.0Y-8.0
X-32.0Y-10.5
X-32.0Y-12.5
X-31.5Y20.0
X-31.5Y18.0
X-31.5Y16.0
X-31.47Y-32.453
X-31.44Y32.618
X-30.5Y-12.5
X-30.47Y-34.185
X-30.44Y34.35
X-30.1Y-24.3
X-29.7Y18.8
X-29.7Y17.8
X-29.5Y23.0
X-29.47Y-35.917
X-29.44Y36.082
X-29.3Y-25.7
X-28.7Y18.8
X-28.7Y17.8
X-28.47Y-37.649
X-28.44Y37.814
X-28.0Y29.7
X-27.47Y-39.381
X-27.44Y39.546
X-27.0Y31.9
X-26.47Y-41.113
X-26.44Y41.278
X-26.25Y-11.0
X-26.25Y-12.5
X-26.1Y25.4
X-26.0Y22.8
X-25.75Y-16.5
X-25.75Y-17.5
X-25.47Y-42.845
X-25.44Y43.01
X-25.13Y-43.51
X-25.0Y43.7
X-24.95Y-25.911
X-24.75Y-10.5
X-24.75Y-12.5
X-24.7Y-8.8
X-24.6Y-6.7
X-24.4Y22.8
X-24.3Y-35.3
X-24.2Y25.4
X-24.1Y-5.0
X-23.38Y-43.51
X-23.25Y43.7
X-23.2Y14.2
X-22.9Y-29.6
X-22.84Y-25.25
X-22.45Y-18.911
X-22.405Y-14.501
X-22.3Y18.8
X-22.3Y17.8
X-22.05Y-11.0
X-22.0Y12.0
X-22.0Y10.0
X-22.0Y8.0
X-22.0Y6.0
X-22.0Y4.0
X-22.0Y2.0
X-21.9Y-6.7
X-21.85Y-12.4
X-21.75Y-34.1
X-21.605Y-13.801
X-21.38Y-43.51
X-21.3Y18.8
X-21.3Y17.8
X-21.25Y43.7
X-21.105Y-27.001
X-21.0Y23.0
X-20.75Y-28.101
X-20.75Y-35.05
X-20.65Y-9.2
X-20.6Y28.5
X-20.3Y-5.0
X-19.65Y-35.9
X-19.5Y-27.8
X-19.38Y-43.51
X-19.35Y-26.7
X-19.25Y43.7
X-18.65Y-10.7
X-18.5Y32.8
X-18.305Y-13.801
X-18.2Y-6.7
X-17.9Y31.0
X-17.762Y-26.999
X-17.75Y-35.9
X-17.6Y-35.05
X-17.505Y-14.501
X-17.5Y-37.5
X-17.45Y-18.911
X-17.38Y-43.51
X-17.25Y43.7
X-17.25Y-12.9
X-17.25Y-34.1
X-17.2Y38.0
X-17.15Y-9.2
X-17.0Y12.0
X-17.0Y10.0
X-17.0Y7.5
X-17.0Y5.5
X-17.0Y3.0
X-16.9Y-1.3
X-16.8Y32.7
X-16.7Y36.7
X-16.6Y40.3
X-16.5Y14.0
X-16.2Y41.6
X-16.1Y-29.8
X-16.0Y21.0
X-15.95Y-12.0
X-15.805Y-22.001
X-15.8Y25.5
X-15.75Y-23.501
X-15.55Y-7.6
X-15.5Y15.0
X-15.38Y-43.51
X-15.35Y-31.7
X-15.35Y-32.8
X-15.25Y43.7
X-14.75Y-10.7
X-14.7Y-14.8
X-14.2Y26.0
X-13.75Y-7.3
X-13.75Y-31.7
X-13.75Y-32.8
X-13.7Y41.4
X-13.6Y32.7
X-13.38Y-43.51
X-13.3Y-15.0
X-13.25Y43.7
X-13.0Y-20.75
X-12.85Y-10.0
X-12.6Y38.2
X-12.3Y14.7
X-11.85Y-12.8
X-11.75Y-14.85
X-11.75Y-21.5
X-11.5Y-39.5
X-11.38Y-43.51
X-11.25Y43.7
X-11.25Y-1.5
X-11.0Y-28.0
X-11.0Y-30.0
X-10.9Y13.6
X-10.6Y40.9
X-10.5Y-25.0
X-10.5Y-26.5
X-10.25Y-4.5
X-9.5Y42.0
X-9.38Y-43.51
X-9.3Y-34.7
X-9.25Y43.7
X-8.5Y-30.0
X-7.75Y-8.0
X-7.5Y15.5
X-7.5Y-24.0
X-7.5Y-26.0
X-7.5Y-28.0
X-7.38Y-43.51
X-7.25Y43.7
X-6.5Y-30.0
X-6.4Y-21.1
X-6.25Y-16.5
X-5.9Y10.3
X-5.8Y9.2
X-5.8Y8.1
X-5.5Y29.5
X-5.5Y15.5
X-5.38Y-43.51
X-5.35Y-34.85
X-5.25Y-16.5
X-5.25Y43.7
X-5.25Y-17.5
X-5.0Y33.5
X-5.0Y32.5
X-4.75Y-26.198
X-4.0Y30.882
X-3.38Y-43.51
X-3.25Y43.7
X-3.1Y-30.2
X-2.8Y-25.4
X-2.3Y-15.15
X-2.25Y-19.198
X-2.0Y34.9
X-1.75Y-10.0
X-1.75Y-34.5
X-1.75Y-35.9
X-1.5Y21.5
X-1.4Y-14.35
X-1.38Y-43.51
X-1.25Y43.7
X-1.2Y39.3
X-1.0Y36.6
X-0.55Y-34.5
X-0.55Y-37.2
X0.0Y0.0
X0.55Y-34.5
X0.62Y-43.51
X0.65Y-38.3
X0.75Y43.7
X0.85Y-26.803
X1.0Y21.5
X1.1Y39.4
X1.75Y-10.0
X1.8Y37.9
X1.85Y-14.3
X1.9Y36.6
X2.0Y15.5
X2.35Y-26.798
X2.62Y-43.51
X2.75Y-19.198
X2.75Y43.7
X2.75Y-14.95
X3.0Y28.5
X3.0Y26.5
X3.0Y24.0
X3.0Y21.5
X3.3Y-30.3
X4.0Y15.5
X4.4Y-22.3
X4.4Y-23.9
X4.62Y-43.51
X4.75Y43.7
X5.0Y33.0
X5.2Y39.7
X5.25Y-10.0
X5.45Y-29.8
X5.75Y18.0
X5.75Y-15.0
X5.95Y-28.9
X6.0Y15.5
X6.5Y34.5
X6.62Y-43.51
X6.75Y43.7
X6.75Y8.5
X7.0Y-36.5
X7.25Y18.5
X7.25Y17.5
X7.35Y-15.0
X7.35Y-20.7
X7.5Y27.5
X7.5Y25.5
X7.5Y23.5
X7.5Y21.5
X7.5Y-22.0
X8.0Y15.5
X8.15Y-29.0
X8.35Y-30.7
X8.5Y-38.0
X8.62Y-43.51
X8.7Y-15.0
X8.7Y-21.5
X8.75Y43.7
X8.75Y5.0
X8.75Y-31.8
X9.05Y-28.2
X9.15Y-29.3
X10.0Y-39.5
X10.25Y2.5
X10.6Y-14.8
X10.62Y-43.51
X10.75Y43.7
X10.84Y-25.8
X11.1Y40.1
X11.25Y0.5
X11.5Y-41.0
X11.65Y-11.0
X11.8Y35.7
X12.1Y-29.4
X12.2Y14.0
X12.25Y29.5
X12.4Y40.1
X12.62Y-43.51
X12.7Y37.0
X12.75Y43.7
X12.75Y35.2
X12.75Y23.262
X12.75Y20.722
X12.99Y-25.16
X13.0Y-42.5
X13.25Y30.5
X13.25Y-12.4
X13.34Y-18.8
X13.35Y28.342
X13.385Y-14.39
X13.45Y-8.1
X13.65Y39.35
X13.7Y38.0
X13.7Y35.7
X14.1Y-31.45
X14.185Y-13.69
X14.25Y29.5
X14.25Y22.0
X14.62Y-43.51
X14.685Y-26.89
X14.75Y43.7
X14.75Y41.25
X14.8Y-37.4
X14.85Y-9.7
X15.04Y-27.99
X15.15Y-32.8
X16.14Y-27.99
X16.3Y-33.1
X16.44Y-26.406
X16.46Y-37.94
X16.62Y-43.51
X16.65Y-7.1
X16.7Y39.9
X16.718Y24.532
X16.75Y43.7
X17.2Y5.9
X17.25Y12.5
X17.3Y-0.5
X17.4Y-33.1
X17.485Y-13.69
X17.65Y-8.3
X17.65Y-10.5
X17.75Y36.0
X17.75Y29.5
X17.75Y27.072
X17.85Y-12.1
X17.9Y25.8
X17.94Y-26.4
X18.285Y-14.39
X18.34Y-18.8
X18.62Y-43.51
X18.75Y43.7
X18.75Y1.0
X18.75Y-2.0
X18.8Y4.2
X19.5Y29.5
X19.6Y-0.6
X19.84Y-23.39
X19.9Y-21.9
X20.2Y-30.5
X20.62Y-43.51
X20.75Y43.7
X20.75Y-17.5
X20.75Y-18.5
X21.2Y-9.9
X21.25Y-5.5
X21.25Y-8.0
X21.75Y10.0
X21.75Y-17.5
X21.75Y-18.5
X22.4Y-30.2
X22.4Y-31.4
X22.4Y-32.6
X22.62Y-43.51
X22.7Y6.9
X22.75Y43.7
X23.25Y-3.5
X23.25Y-5.5
X23.25Y-7.5
X23.25Y-9.0
X23.5Y-11.5
X23.6Y1.3
X23.75Y27.25
X23.75Y9.0
X23.9Y33.3
X23.9Y32.2
X24.62Y-43.51
X24.75Y43.7
X25.0Y20.5
X25.45Y-22.7
X25.495Y-42.826
X25.605Y42.882
X25.75Y11.0
X26.0Y33.3
X26.0Y23.5
X26.0Y22.0
X26.37Y-41.31
X26.48Y41.366
X26.5Y35.5
X27.0Y26.7
X27.1Y33.3
X27.2Y25.2
X27.25Y8.5
X27.25Y-31.1
X27.37Y-39.578
X27.48Y39.634
X27.5Y30.5
X28.37Y-37.846
X28.48Y37.902
X28.6Y35.6
X28.64Y8.43
X28.75Y12.3
X28.75Y7.0
X28.8Y-29.1
X29.37Y-36.114
X29.4Y2.5
X29.5Y-18.6
X29.5Y-20.2
X29.55Y19.3
X29.57Y-14.05
X29.61Y-15.54
X29.65Y12.3
X29.9Y3.6
X30.37Y-34.382
X30.55Y12.3
X31.37Y-32.65
X31.45Y-25.95
X32.37Y-30.918
X32.5Y30.5
X32.5Y27.9
X33.2Y25.3
X33.37Y-29.186
X34.37Y-27.454
X34.4Y23.5
X34.48Y27.51
X34.5Y13.5
X34.74Y-20.61
X34.95Y-19.1
X35.0Y-3.0
X35.0Y-6.0
X35.0Y-13.0
X35.0Y-15.5
X35.37Y-25.722
X35.48Y25.778
X36.37Y-23.989
X36.4Y-14.05
X36.48Y24.046
X37.227Y10.0
X37.37Y-22.257
X37.48Y22.314
X38.37Y-20.525
X38.48Y20.582
X38.5Y2.7
X39.37Y-18.793
X39.48Y18.85
X40.37Y-17.061
X40.48Y17.118
X41.37Y-15.329
X41.48Y15.386
X42.37Y-13.597
X42.48Y13.654
X42.7Y7.3
X42.7Y5.9
X42.8Y1.8
X42.8Y-6.2
X43.37Y-11.865
X43.48Y11.922
X43.8Y-1.3
X43.8Y-5.6
X43.9Y1.1
X44.37Y-10.133
X44.48Y10.189
X44.6Y-5.7
X45.37Y-8.401
X45.48Y8.457
X46.37Y-6.669
X46.48Y6.725
X47.37Y-4.937
X47.48Y4.993
X48.37Y-3.205
X48.48Y3.261
X49.37Y-1.473
X49.48Y1.529
X50.48Y-0.203
T2
X-20.95Y-21.5
X-20.95Y-22.5
X-20.95Y-23.5
X-19.95Y-21.5
X-19.95Y-22.5
X-19.95Y-23.5
X-18.95Y-21.5
X-18.95Y-22.5
X-18.95Y-23.5
X-0.75Y-21.787
X-0.75Y-22.787
X-0.75Y-23.787
X0.25Y-21.787
X0.25Y-22.787
X0.25Y-23.787
X1.25Y-21.787
X1.25Y-22.787
X1.25Y-23.787
X14.85Y-21.4
X14.85Y-22.4
X14.85Y-23.4
X15.85Y-21.4
X15.85Y-22.4
X15.85Y-23.4
X16.85Y-21.4
X16.85Y-22.4
X16.85Y-23.4
T3
X-47.333Y-0.05
X-46.467Y0.45
X-46.133Y-2.128
X-45.267Y-1.628
X-44.933Y-4.207
X-44.067Y-3.707
X-26.133Y36.842
X-25.267Y36.342
X-24.933Y38.921
X-24.067Y38.421
X-23.733Y40.999
X-23.6Y-40.1
X-23.6Y-41.1
X-22.867Y40.499
X-21.2Y-40.1
X-21.2Y-41.1
X-18.8Y-40.1
X-18.8Y-41.1
X18.8Y40.9
X18.8Y39.9
X21.2Y40.9
X21.2Y39.9
X22.934Y-40.5
X23.6Y40.9
X23.6Y39.9
X23.8Y-41.0
X24.134Y-38.422
X25.0Y-38.922
X25.334Y-36.343
X26.2Y-36.843
X44.46Y3.708
X45.326Y4.208
X45.66Y1.629
X46.526Y2.129
X46.86Y-0.449
X47.726Y0.051
T4
X-33.6Y12.55
X-31.6Y12.55
X-29.6Y12.55
X-19.15Y2.1
X-19.15Y0.1
X-19.15Y-1.9
X19.8Y-32.86
X19.8Y-35.4
X19.8Y-37.94
X19.8Y-40.48
T5
X-15.1Y9.8
X-15.1Y4.7
X-10.5Y7.3
T6
G00X-37.3Y-0.41
M15
G01X-37.3Y0.61
M16
G05
G00X35.6Y-0.41
M15
G01X35.6Y0.61
M16
G05
M30
